<?xml version="1.0" encoding="utf-8"?>
<!-- Generator: Adobe Illustrator 20.0.0, SVG Export Plug-In . SVG Version: 6.00 Build 0)  -->
<svg version="1.1" id="图层_1" xmlns="http://www.w3.org/2000/svg" xmlns:xlink="http://www.w3.org/1999/xlink" x="0px" y="0px"
	 viewBox="0 0 15.6 15.6" style="enable-background:new 0 0 15.6 15.6;" xml:space="preserve">
<style type="text/css">
	.st0{fill:#318FB5;}
</style>
<g>
	<path class="st0" d="M2.9,8.2c0.4-0.4,0.9-0.7,1.5-0.7S5.6,7.7,6,8.2c0.4,0.4,0.7,1,0.7,1.5S6.5,10.8,6,11.2s-1,0.6-1.5,0.6
		S3.4,11.6,3,11.2s-0.6-0.9-0.6-1.5S2.5,8.6,2.9,8.2z M3.4,10.8c0.3,0.3,0.7,0.4,1.1,0.4s0.8-0.1,1.1-0.4S6,10.1,6,9.7
		S5.9,8.9,5.6,8.6S4.9,8.2,4.5,8.2S3.7,8.3,3.4,8.6S2.9,9.3,2.9,9.7S3.1,10.5,3.4,10.8z M8.7,6.6L8,5.6l-1,1l0.9,0.8V10H7.2V8
		L5.7,7.1C5.4,6.9,5.3,6.7,5.3,6.5S5.4,6.1,5.5,6l1.7-1.6c0.1-0.1,0.3-0.2,0.5-0.2c0.3,0,0.5,0.1,0.7,0.4L9.2,6h1.4v0.8H8.7V6.6z
		 M9.1,8.2c0.4-0.4,1-0.7,1.5-0.7s1.1,0.2,1.5,0.7c0.4,0.4,0.6,1,0.6,1.5s-0.2,1.1-0.6,1.5s-0.9,0.6-1.5,0.6s-1.1-0.2-1.5-0.6
		s-0.7-0.9-0.7-1.5S8.6,8.6,9.1,8.2z M9.9,4.2C9.7,4.4,9.5,4.5,9.3,4.5S8.9,4.4,8.7,4.2C8.5,4,8.5,3.9,8.5,3.7s0.1-0.4,0.2-0.6
		S9,2.9,9.3,2.9S9.7,3,9.9,3.1s0.2,0.3,0.2,0.6S10,4.1,9.9,4.2z M9.5,10.8c0.3,0.3,0.7,0.4,1.1,0.4s0.8-0.1,1.1-0.4s0.4-0.7,0.4-1.1
		S12,8.9,11.7,8.6S11,8.2,10.6,8.2S9.8,8.3,9.5,8.6S9.1,9.3,9.1,9.7S9.2,10.5,9.5,10.8z"/>
</g>
</svg>
