<?xml version="1.0" encoding="utf-8"?>
<!-- Generator: Adobe Illustrator 20.0.0, SVG Export Plug-In . SVG Version: 6.00 Build 0)  -->
<svg version="1.1" id="图层_1" xmlns="http://www.w3.org/2000/svg" xmlns:xlink="http://www.w3.org/1999/xlink" x="0px" y="0px"
	 viewBox="0 0 15.6 15.6" style="enable-background:new 0 0 15.6 15.6;" xml:space="preserve">
<style type="text/css">
	.st0{enable-background:new    ;}
	.st1{fill:#7BA8C6;}
</style>
<g class="st0">
	<path class="st1" d="M5.3,3c0.9,0,1.6,0.2,2,0.7V12l0,0c-0.1-0.4-0.3-0.8-0.7-1.1s-0.8-0.4-1.2-0.4c-0.9,0-1.5,0.3-1.8,1H3.4H3.1H3
		v-0.2V5.1V4.9l0,0c0-0.6,0.2-1.1,0.7-1.4S4.7,3,5.3,3z M9.7,3c0.7,0,1.3,0.2,1.7,0.5S12,4.3,12,4.9l0,0V5v6.1v0.4h-0.1h-0.3h-0.1
		c-0.4-0.7-1-1-1.8-1c-0.5,0-0.9,0.1-1.2,0.4c-0.4,0.3-0.6,0.6-0.7,1.1l0,0V3.7C8.1,3.3,8.7,3,9.7,3z"/>
</g>
</svg>
