<?xml version="1.0" encoding="utf-8"?>
<!-- Generator: Adobe Illustrator 19.0.0, SVG Export Plug-In . SVG Version: 6.00 Build 0)  -->
<svg version="1.1" id="图层_1" xmlns="http://www.w3.org/2000/svg" xmlns:xlink="http://www.w3.org/1999/xlink" x="0px" y="0px"
	 viewBox="-248.3 356.7 15.7 15.7" style="enable-background:new -248.3 356.7 15.7 15.7;" xml:space="preserve">
<style type="text/css">
	.st0{opacity:0.4;fill:#80BF96;}
	.st1{fill:#FFFFFF;}
</style>
<title>815</title>
<path id="XMLID_2_" class="st0" d="M-240.5,372.3L-240.5,372.3c-4.3,0-7.8-3.5-7.8-7.8l0,0c0-4.3,3.5-7.8,7.8-7.8h0
	c4.3,0,7.8,3.5,7.8,7.8l0,0C-232.7,368.8-236.2,372.3-240.5,372.3z"/>
<g>
	<g transform="translate(0.000000, 1.000000)">
		<path class="st1" d="M-237.7,366.5c0.1,0,0.3,0,0.4-0.1l2.6-2.5c0.2-0.2,0.2-0.5,0-0.7l-2.6-2.5c-0.2-0.2-0.5-0.2-0.7,0
			c-0.2,0.2-0.2,0.5,0,0.7l2.3,2.2l-2.3,2.2c-0.2,0.2-0.2,0.5,0,0.7C-237.9,366.5-237.8,366.5-237.7,366.5L-237.7,366.5z"/>
		<path class="st1" d="M-243.3,366.5c-0.1,0-0.3,0-0.4-0.1l-2.7-2.5c-0.2-0.2-0.2-0.5,0-0.7l2.7-2.5c0.2-0.2,0.5-0.2,0.8,0
			c0.2,0.2,0.2,0.5,0,0.7l-2.3,2.1l2.3,2.1c0.2,0.2,0.2,0.5,0,0.7C-243,366.4-243.2,366.5-243.3,366.5L-243.3,366.5z"/>
		<path class="st1" d="M-241.5,368.7c0.2,0,0.3-0.2,0.4-0.4l2.1-9.5c0.1-0.3-0.1-0.5-0.4-0.6c-0.3-0.1-0.5,0.1-0.6,0.4l-2.1,9.5
			c-0.1,0.3,0.1,0.5,0.4,0.6C-241.6,368.8-241.6,368.8-241.5,368.7L-241.5,368.7z"/>
	</g>
</g>
</svg>
