<?xml version="1.0" encoding="utf-8"?>
<!-- Generator: Adobe Illustrator 20.0.0, SVG Export Plug-In . SVG Version: 6.00 Build 0)  -->
<svg version="1.1" id="图层_1" xmlns="http://www.w3.org/2000/svg" xmlns:xlink="http://www.w3.org/1999/xlink" x="0px" y="0px"
	 viewBox="0 0 17.5 16.3" style="enable-background:new 0 0 17.5 16.3;" xml:space="preserve">
<style type="text/css">
	.st0{fill:#F7D857;}
</style>
<g>
	<path class="st0" d="M5.2,9L1.5,5.4c-0.7-0.7-1-1.4-1-2.4s0.3-1.7,1-2.4l6.1,5.9L5.2,9z M11,7.5L9.8,8.7l5.9,5.7l-1.2,1.2L8.6,9.8
		l-5.9,5.7l-1.4-1.2c4.4-4.1,7.1-6.9,8.5-8.1C9.5,5.6,9.5,4.9,9.6,4.1c0.2-0.8,0.7-1.5,1.4-2.2c0.8-0.8,1.7-1.2,2.7-1.4
		s1.9,0.2,2.5,0.7c0.7,0.5,0.8,1.5,0.7,2.4s-0.7,1.9-1.4,2.7c-0.7,0.7-1.4,1.2-2.2,1.4S11.7,7.8,11,7.5z"/>
</g>
</svg>
