<?xml version="1.0" encoding="utf-8"?>
<!-- Generator: Adobe Illustrator 19.0.0, SVG Export Plug-In . SVG Version: 6.00 Build 0)  -->
<svg version="1.1" id="图层_1" xmlns="http://www.w3.org/2000/svg" xmlns:xlink="http://www.w3.org/1999/xlink" x="0px" y="0px"
	 viewBox="-289 413.6 15.7 15.3" style="enable-background:new -289 413.6 15.7 15.3;" xml:space="preserve">
<style type="text/css">
	.st0{opacity:0.4;fill:#80BF96;enable-background:new    ;}
	.st1{fill:#FFFFFF;}
</style>
<g id="XMLID_351_">
	<path id="XMLID_341_" class="st0" d="M-281.1,429.3L-281.1,429.3c-4.3,0-7.8-3.5-7.8-7.8v0c0-4.3,3.5-7.8,7.8-7.8l0,0
		c4.3,0,7.8,3.5,7.8,7.8v0C-273.3,425.7-276.8,429.3-281.1,429.3z"/>
	<path id="XMLID_395_" class="st1" d="M-276.4,421.2c-0.2,1.7-1.1,2.7-3.4,2.9c0.3,0.2,0.6,0.4,0.8,0.8c0.1,0.2,0.2,0.4,0.2,0.6
		l0,3.5l-0.5,0.2l-2.3,0.3l-1.6-0.4c0-0.8,0.1-3.1,0.1-3.1c0,0-0.1,0.1-0.3,0.1c-0.5,0.2-1.4,0.3-1.9-0.8c-0.1-0.2-0.3-0.8-0.7-1.1
		c0,0-0.4-0.2-0.4-0.4c0,0,0-0.1,0.1-0.1c0,0,0.6-0.2,1.2,0.5c0.2,0.2,0.5,1.1,1.8,0.8c0.1,0,0.2-0.1,0.3-0.1v0
		c0-0.2,0.2-0.5,0.5-0.8c-2.2-0.3-3.1-0.9-3.4-2.8c-0.2-1.3,0.2-2.3,0.7-2.8c-0.1-0.1-0.4-1,0.1-2c0.5-0.1,1.3,0.2,2.1,0.8
		c1.1-0.4,2.8-0.5,3.8,0c0.4-0.3,1.6-0.9,2.1-0.8c0.2,0.4,0.4,1.3,0.1,2C-276.4,419.2-276.2,420.1-276.4,421.2z"/>
</g>
</svg>
