<?xml version="1.0" encoding="utf-8"?>
<!-- Generator: Adobe Illustrator 20.0.0, SVG Export Plug-In . SVG Version: 6.00 Build 0)  -->
<svg version="1.1" id="图层_1" xmlns="http://www.w3.org/2000/svg" xmlns:xlink="http://www.w3.org/1999/xlink" x="0px" y="0px"
	 viewBox="0 0 70.9 99.2" style="enable-background:new 0 0 70.9 99.2;" xml:space="preserve">
<style type="text/css">
	.st0{fill:#FFFFFF;}
	.st1{display:none;opacity:0.3;}
	.st2{display:inline;fill:none;stroke:#469B60;stroke-width:0.25;stroke-miterlimit:10;}
	.st3{fill:#555555;}
</style>
<rect class="st0" width="70.9" height="99.2"/>
<g id="XMLID_34_" class="st1">
	<line id="XMLID_143_" class="st2" x1="-317" y1="509.6" x2="-246.2" y2="509.6"/>
	<line id="XMLID_142_" class="st2" x1="-317" y1="507" x2="-246.2" y2="507"/>
	<line id="XMLID_141_" class="st2" x1="-317" y1="504.2" x2="-246.2" y2="504.2"/>
	<line id="XMLID_140_" class="st2" x1="-317" y1="501.6" x2="-246.2" y2="501.6"/>
	<line id="XMLID_139_" class="st2" x1="-317" y1="498.9" x2="-246.2" y2="498.9"/>
	<line id="XMLID_138_" class="st2" x1="-317" y1="496.2" x2="-246.2" y2="496.2"/>
	<line id="XMLID_137_" class="st2" x1="-317" y1="493.5" x2="-246.2" y2="493.5"/>
	<line id="XMLID_136_" class="st2" x1="-317" y1="490.8" x2="-246.2" y2="490.8"/>
	<line id="XMLID_135_" class="st2" x1="-317" y1="488.2" x2="-246.2" y2="488.2"/>
	<line id="XMLID_134_" class="st2" x1="-317" y1="485.5" x2="-246.2" y2="485.5"/>
	<line id="XMLID_133_" class="st2" x1="-317" y1="482.7" x2="-246.2" y2="482.7"/>
	<line id="XMLID_132_" class="st2" x1="-317" y1="480.1" x2="-246.2" y2="480.1"/>
	<line id="XMLID_131_" class="st2" x1="-317" y1="477.4" x2="-246.2" y2="477.4"/>
	<line id="XMLID_130_" class="st2" x1="-317" y1="474.7" x2="-246.2" y2="474.7"/>
	<line id="XMLID_129_" class="st2" x1="-317" y1="472" x2="-246.2" y2="472"/>
	<line id="XMLID_128_" class="st2" x1="-317" y1="469.3" x2="-246.2" y2="469.3"/>
	<line id="XMLID_127_" class="st2" x1="-317" y1="466.7" x2="-246.2" y2="466.7"/>
	<line id="XMLID_126_" class="st2" x1="-317" y1="464" x2="-246.2" y2="464"/>
	<line id="XMLID_125_" class="st2" x1="-317" y1="461.3" x2="-246.2" y2="461.3"/>
	<line id="XMLID_124_" class="st2" x1="-317" y1="458.6" x2="-246.2" y2="458.6"/>
	<line id="XMLID_123_" class="st2" x1="-317" y1="455.9" x2="-246.2" y2="455.9"/>
	<line id="XMLID_122_" class="st2" x1="-317" y1="453.2" x2="-246.2" y2="453.2"/>
	<line id="XMLID_121_" class="st2" x1="-317" y1="450.5" x2="-246.2" y2="450.5"/>
	<line id="XMLID_120_" class="st2" x1="-317" y1="447.8" x2="-246.2" y2="447.8"/>
	<line id="XMLID_119_" class="st2" x1="-317" y1="445.2" x2="-246.2" y2="445.2"/>
	<line id="XMLID_118_" class="st2" x1="-317" y1="442.5" x2="-246.2" y2="442.5"/>
	<line id="XMLID_117_" class="st2" x1="-317" y1="439.8" x2="-246.2" y2="439.8"/>
	<line id="XMLID_116_" class="st2" x1="-317" y1="437.1" x2="-246.2" y2="437.1"/>
	<line id="XMLID_115_" class="st2" x1="-317" y1="434.4" x2="-246.2" y2="434.4"/>
	<line id="XMLID_114_" class="st2" x1="-317" y1="431.7" x2="-246.2" y2="431.7"/>
	<line id="XMLID_113_" class="st2" x1="-317" y1="429" x2="-246.2" y2="429"/>
	<line id="XMLID_112_" class="st2" x1="-317" y1="426.3" x2="-246.2" y2="426.3"/>
	<line id="XMLID_111_" class="st2" x1="-317" y1="423.7" x2="-246.2" y2="423.7"/>
	<line id="XMLID_110_" class="st2" x1="-317" y1="421" x2="-246.2" y2="421"/>
	<line id="XMLID_108_" class="st2" x1="-317" y1="418.3" x2="-246.2" y2="418.3"/>
	<line id="XMLID_76_" class="st2" x1="-317" y1="415.6" x2="-246.2" y2="415.6"/>
	<path id="XMLID_109_" class="st2" d="M-245.3,512.3"/>
	<path id="XMLID_35_" class="st2" d="M-245.3,412.9"/>
	<line id="XMLID_77_" class="st2" x1="-248" y1="412.9" x2="-248" y2="512.3"/>
	<line id="XMLID_78_" class="st2" x1="-250.7" y1="412.9" x2="-250.7" y2="512.3"/>
	<line id="XMLID_79_" class="st2" x1="-253.4" y1="412.9" x2="-253.4" y2="512.3"/>
	<line id="XMLID_80_" class="st2" x1="-256.1" y1="412.9" x2="-256.1" y2="512.3"/>
	<line id="XMLID_81_" class="st2" x1="-258.7" y1="412.9" x2="-258.7" y2="512.3"/>
	<line id="XMLID_82_" class="st2" x1="-261.5" y1="412.9" x2="-261.5" y2="512.3"/>
	<line id="XMLID_83_" class="st2" x1="-264.1" y1="412.9" x2="-264.1" y2="512.3"/>
	<line id="XMLID_84_" class="st2" x1="-266.8" y1="412.9" x2="-266.8" y2="512.3"/>
	<line id="XMLID_85_" class="st2" x1="-269.5" y1="412.9" x2="-269.5" y2="512.3"/>
	<line id="XMLID_86_" class="st2" x1="-272.2" y1="412.9" x2="-272.2" y2="512.3"/>
	<line id="XMLID_87_" class="st2" x1="-274.9" y1="412.9" x2="-274.9" y2="512.3"/>
	<line id="XMLID_88_" class="st2" x1="-277.6" y1="412.9" x2="-277.6" y2="512.3"/>
	<line id="XMLID_89_" class="st2" x1="-280.2" y1="412.9" x2="-280.2" y2="512.3"/>
	<line id="XMLID_90_" class="st2" x1="-283" y1="412.9" x2="-283" y2="512.3"/>
	<line id="XMLID_91_" class="st2" x1="-285.6" y1="412.9" x2="-285.6" y2="512.3"/>
	<line id="XMLID_92_" class="st2" x1="-288.3" y1="412.9" x2="-288.3" y2="512.3"/>
	<line id="XMLID_93_" class="st2" x1="-291" y1="412.9" x2="-291" y2="512.3"/>
	<line id="XMLID_94_" class="st2" x1="-293.7" y1="412.9" x2="-293.7" y2="512.3"/>
	<line id="XMLID_95_" class="st2" x1="-296.4" y1="412.9" x2="-296.4" y2="512.3"/>
	<line id="XMLID_96_" class="st2" x1="-299.1" y1="412.9" x2="-299.1" y2="512.3"/>
	<line id="XMLID_97_" class="st2" x1="-301.7" y1="412.9" x2="-301.7" y2="512.3"/>
	<line id="XMLID_98_" class="st2" x1="-304.5" y1="412.9" x2="-304.5" y2="512.3"/>
	<line id="XMLID_99_" class="st2" x1="-307.1" y1="412.9" x2="-307.1" y2="512.3"/>
	<line id="XMLID_100_" class="st2" x1="-309.8" y1="412.9" x2="-309.8" y2="512.3"/>
	<line id="XMLID_101_" class="st2" x1="-312.5" y1="412.9" x2="-312.5" y2="512.3"/>
	<line id="XMLID_102_" class="st2" x1="-315.2" y1="412.9" x2="-315.2" y2="512.3"/>
</g>
<g id="XMLID_33_">
	<path id="XMLID_32_" class="st3" d="M35,6.9c0.4-0.1,0.9-0.2,1.4-0.4c0-0.1,0-0.1,0-0.2c0.5,0,1.1,0,1.6,0
		c-0.1,0.4-0.1,0.7-0.2,1.2c0.2-0.1,0.5-0.1,0.7-0.2c0.2-0.8,0.7-0.8,1.7-0.7c0,0.1,0,0.1,0,0.2c0.2,0,0.4,0,0.6,0
		c0,0.1,0,0.1,0,0.2c0.4,0.2,0.4,0.3,1,0.4c0-0.1,0-0.1,0-0.2c0.1,0,0.1,0,0.2,0c-0.1-0.1-0.1-0.2-0.2-0.4c0.6,0,1.2,0,1.7,0
		c0.4,0.6,0.9,0.4,1.6,0.7c0.1,0.1,0.1,0.2,0.2,0.4c0.2-0.1,0.4-0.1,0.6-0.2C46,7.8,46,7.9,46.1,8.1c0.3,0.1,0.6,0.1,1,0.2
		c0,0.1,0,0.1,0,0.2c0.2,0.1,0.5,0.1,0.7,0.2c0,0.1,0,0.1,0,0.2C48.2,9,48.7,9,49.2,9.1c0,0.1,0,0.1,0,0.2c0.2,0.2,0.3,0.1,0.7,0.2
		c0,0.1,0,0.2,0,0.4c0.2,0.1,0.3,0.4,0.4,0.4c0.3,0.1,0.6,0.1,1,0.2c0.1,0.1,0.1,0.2,0.2,0.4c0.1,0,0.2,0,0.4,0c0,0.1,0,0.1,0,0.2
		c0.2,0.1,0.5,0.1,0.7,0.2c0.1,0.1,0.1,0.2,0.2,0.4c0.4,0.4,0.7,0.8,1.4,1c0,0.1,0,0.2,0,0.4c0.9,0.2,0.7,0.7,1.2,1.4
		c0.2,0.1,0.4,0.2,0.6,0.4c0.2,0.2,0.4,0.5,0.6,0.7c0.1,0,0.1,0,0.2,0c0,0.1,0,0.2,0,0.4c0.1,0,0.1,0,0.2,0c0.4,0.5,1,0.9,1.2,1.6
		c0.6,0.1,0.5,0.2,0.7,0.6c0.1,0,0.1,0,0.2,0c0,0.2,0,0.4,0,0.6c0.1,0.1,0.2,0.1,0.4,0.2c0.1,0.2,0.1,0.5,0.2,0.7
		c0.1,0.1,0.2,0.1,0.4,0.2c0,0.2,0,0.4,0,0.6c0.1,0,0.1,0,0.2,0c0,0.2,0,0.5,0,0.7c0.1,0,0.1,0,0.2,0c0,0.1,0,0.2,0,0.4
		c0.1,0,0.1,0,0.2,0c0,0.2,0,0.4,0,0.6c0.1,0,0.1,0,0.2,0c0,0.1,0,0.2,0,0.4c0.1,0,0.1,0,0.2,0c0.1,0.4,0.1,0.7,0.2,1.2
		c0.1,0.1,0.2,0.1,0.4,0.2c0,0.1,0,0.2,0,0.4c0.1,0,0.1,0,0.2,0c0.1,0.8,0.1,1.7,0.2,2.5c0.1,0,0.1,0,0.2,0c0,0.2,0,0.5,0,0.7
		c0.1,0,0.1,0,0.2,0c0,0.5,0,1.1,0,1.6c0.1,0,0.1,0,0.2,0c-0.1,0.1-0.1,0.2-0.2,0.4c0,0,0.2,0.1,0.2,0.6c-0.1,0.2-0.2-0.1-0.2,0.2
		c0.1,0,0.1,0,0.2,0c0,0.2,0,0.5,0,0.7c-0.1,0-0.1,0-0.2,0c-0.1,0.3,0.2,0.3,0.2,0.4c0,0.7,0,1.6,0,2.3c-0.1,0.2-0.2-0.1-0.2,0.2
		c0,0,0.3,0.2,0.2,0.6c-0.4,1.6-0.6,3-0.6,5c-0.6-0.1-0.4-0.2-1-0.4c0-0.1,0-0.2,0-0.4c-0.2,0.2-0.1,0-0.2,0.4c-0.1,0-0.1,0-0.2,0
		c0,0.1,0,0.1,0,0.2c0.1,0,0.1,0,0.2,0c0,0.2,0,0.5,0,0.7c0.1,0,0.1,0,0.2,0c0,0.1,0,0.1,0,0.2c-0.1,0-0.1,0-0.2,0c0,0.3,0,0.6,0,1
		c-0.1,0-0.1,0-0.2,0c0,0.2,0,0.5,0,0.7c-0.1,0-0.1,0-0.2,0c0-0.1,0-0.2,0-0.4c-0.2-0.2-0.4-0.5-0.6-0.7c-0.1,0-0.1,0-0.2,0
		c0,0.1,0,0.1,0,0.2c-0.4,0.4,0,1.2-0.2,1.9c-0.2,0.5-0.5,0.8-0.6,1.6c-0.2,0.1-0.5,0.1-0.7,0.2c0-1.6-0.4-3.2-0.7-4.5
		c0-0.4,0-0.9,0-1.4c0,0-0.5-0.4-0.6-0.6c0.4,0,0.9,0,1.4,0c0-0.1,0-0.1,0-0.2c0.3-0.3,0.2-1.1,0.2-1.7c-0.1-0.1-0.2-0.1-0.4-0.2
		c0-0.1,0-0.1,0-0.2c-0.1,0-0.1,0-0.2,0c0,0.1,0,0.1,0,0.2c-0.4,0-0.9,0-1.4,0c0.1-0.2,0.3-0.4,0.2-0.7c-0.1,0-0.1,0-0.2,0
		c0-0.1,0-0.2,0-0.4c-0.1-0.1-0.2-0.1-0.4-0.2c-0.1-0.3-0.1-0.6-0.2-1c-0.1-0.1-0.2-0.1-0.4-0.2c0-0.1,0-0.2,0-0.4
		c-0.2-0.1-0.4-0.2-0.6-0.4c0-0.1,0-0.2,0-0.4c-0.1,0-0.1,0-0.2,0c0-0.1,0-0.2,0-0.4c-0.1,0-0.1,0-0.2,0c-0.2-0.4-0.4-0.4-0.6-1
		c-0.7-0.2-0.2-0.1-0.6-0.6c-0.1,0-0.1,0-0.2,0c0-0.1,0-0.2,0-0.4C53,30,52.9,30,52.7,29.9c0-0.1,0-0.2,0-0.4c-0.1,0-0.1,0-0.2,0
		c-0.1-0.6-0.2-1.3-0.4-1.9c-0.1,0-0.1,0-0.2,0c0-0.2,0-0.5,0-0.7c-0.1-0.1-0.2,0-0.4-0.6c-0.7-0.1-0.7-0.1-1.2-0.4
		c0-0.1,0-0.1,0-0.2c-0.2,0-0.4,0-0.6,0c0-0.1,0-0.1,0-0.2c-0.6-0.1-0.4,0.4-1,0.4c0-0.1,0-0.1,0-0.2c-0.2,0-0.5,0-0.7,0
		c0,0.1,0,0.1,0,0.2c-0.8,0-1.7,0-2.5,0c0,0.1,0,0.1,0,0.2c-0.2,0-0.4,0-0.6,0c0,0.1,0,0.1,0,0.2c-0.2,0-0.5,0-0.7,0
		c0,0.1,0,0.1,0,0.2c-1.2,0-2.4,0-3.7,0c-0.9,0.2-2.1,0.6-3.1,0.7c0-0.1,0-0.1,0-0.2c0.2-0.2,0.1,0,0.2-0.4
		c-1.5,0.1-1.4,1.2-2.1,2.1c-0.2,0.1-0.4,0.1-0.6,0.2c0,0.1,0,0.1,0,0.2c-0.1,0-0.2,0-0.4,0c-0.1,0.2-0.2,0.4-0.4,0.6
		c-0.6-0.2-0.3-0.1-1,0c0-1.2,0-2.3,0-3.5c-0.1,0-0.2,0-0.4,0c0-0.6,0-1.2,0-1.7c-0.1,0-0.2,0-0.4,0c0.1,0.1,0.1,0.2,0.2,0.4
		c-0.2,0-0.5,0-0.7,0c0,0.1,0,0.1,0,0.2c-0.2,0.1-0.4,0.2-0.6,0.4c0,0.2,0,0.4,0,0.6c-0.1,0-0.1,0-0.2,0c0,0.1,0,0.2,0,0.4
		c-0.1,0-0.1,0-0.2,0c0,0.1,0,0.2,0,0.4c-0.1,0.1-0.2,0.1-0.4,0.2c0,0.2,0,0.5,0,0.7c-0.1,0.1-0.2,0.1-0.4,0.2c0,0.1,0,0.2,0,0.4
		c-0.1,0-0.1,0-0.2,0c0,0.1,0,0.2,0,0.4c-0.1,0-0.1,0-0.2,0c-0.1,0.3-0.1,0.6-0.2,1c0.2-0.5,0-0.5-0.1-0.4c-0.1,0.2-0.1,0.5-0.2,0.7
		c-0.1,0.1-0.2,0.1-0.4,0.2c0,0.1,0,0.2,0,0.4c-0.2,0.1-0.5,0.2-0.7,0.4c0,0.1,0,0.2,0,0.4c-0.1,0-0.1,0-0.2,0
		c-0.1,0.2-0.2,0.4-0.4,0.6c-0.1,0-0.2,0-0.4,0c0,0.1,0,0.1,0,0.2c-0.5-0.1-1.1-0.1-1.6-0.2c-0.1,0.1-0.1,0.2-0.2,0.4
		c-0.2,0-0.5,0-0.7,0c0,0.1,0,0.1,0,0.2c-0.2,0.1-0.5,0.1-0.7,0.2c-0.1,0.1-0.1,0.2-0.2,0.4c-0.1,0-0.2,0-0.4,0
		c-0.1,0.1-0.1,0.2-0.2,0.4c-0.4,0.1-0.7,0.2-1.2,0.4c-0.1,0.2-0.1,0.4-0.2,0.6c-0.2,0.1-0.4,0.2-0.6,0.4c0,0.1,0,0.1,0,0.2
		c-0.2,0-0.5,0-0.7,0c-0.7,0.2-1.2,0.7-1.4,1.6c-0.6,0.1-0.4,0.1-0.6,0.6c-0.2,0-0.4,0-0.6,0c-0.1,0.6-0.4,0.7-0.6,1.4
		c0.1,0,0.1,0,0.2,0c0,0.1,0,0.1,0,0.2c0.3,0,0.6,0,1,0c0.4-0.4,2.5-0.6,3.5-0.6c0,0.1,0,0.1,0,0.2c-0.1,0-0.1,0-0.2,0
		c-0.2,0.2-1.2,0.6-1.4,0.7c0,0.1,0,0.2,0,0.4c-0.5,0.4-0.4,1.4-0.4,2.3c0.1,1.7,1,2.9,1.6,4c-0.1,0-0.2,0-0.4,0
		c-0.1-0.2-0.3-0.2-0.4-0.4c0-0.1,0-0.2,0-0.4c-0.1-0.1-0.2-0.1-0.4-0.2c0-0.1,0-0.2,0-0.4c-0.1,0-0.1,0-0.2,0c0-0.1,0-0.2,0-0.4
		c-0.1,0-0.1,0-0.2,0c0-0.2,0-0.4,0-0.6c-0.5-0.8-1.1-1.7-1.6-2.5c-0.2,0.1-1.5,0.6-1.6,0.7c0,2.1,0,4.2,0,6.4
		c-0.2-0.1-0.5-0.1-0.7-0.2c-0.1-0.2-0.1-0.4-0.2-0.6c-0.1,0-0.1,0-0.2,0c0-0.2,0-0.4,0-0.6c-0.1,0-0.1,0-0.2,0
		c-0.1-0.3-0.1-0.6-0.2-1c-0.1,0-0.1,0-0.2,0c-0.1,0.1,0,0.3-0.4,0.2c0-0.1,0-0.1,0-0.2c-0.3-0.3-0.4-0.9-0.6-1.4
		c-0.1,0-0.1,0-0.2,0c-0.1,0.1-0.1,1.2-0.4,0.6c-0.1,0-0.1,0-0.2,0c-0.2-0.2-0.1-0.8-0.4-1c-0.2,0-0.4,0-0.6,0c0-0.1,0-0.1,0-0.2
		c-0.2-0.1-0.4-0.1-0.6-0.2c0-0.8,0-1.7,0-2.5c-0.2-0.1-0.4-0.2-0.6-0.4c0-0.3,0-0.6,0-1c-0.1-0.1-0.2-0.1-0.4-0.2
		c0-0.1,0-0.2,0-0.4c-0.1,0-0.1,0-0.2,0c-0.2-0.7,0.2-1.7-0.2-2.1c-0.2-0.2,0-0.1-0.4-0.2c0-0.3,0-0.6,0-1c-0.1,0-0.1,0-0.2,0
		c0-0.1,0-0.1,0-0.2c0.1,0,0.1,0,0.2,0c0-0.1,0-0.1,0-0.2c-0.1-0.1-0.2-0.1-0.4-0.2c0-0.1,0-0.2,0-0.4c-0.1,0-0.1,0-0.2,0
		c0-1.2,0-2.3,0-3.5c0-3.7,0.5-6.6,1.6-9.3c0-0.2,0-0.4,0-0.6c0.1,0,0.1,0,0.2,0c0-0.2,0-0.4,0-0.6c0.1-0.1,0.2-0.1,0.4-0.2
		c0-0.2,0-0.4,0-0.6c0.1,0,0.1,0,0.2,0c0-0.1,0-0.2,0-0.4c0.1,0,0.1,0,0.2,0c0-0.1,0-0.2,0-0.4c0.1,0,0.1,0,0.2,0
		c0.3-0.6-0.2-0.4,0.6-0.6c0-0.2,0-0.4,0-0.6c0.2-0.1,0.4-0.2,0.6-0.4c0-0.1,0-0.2,0-0.4c0.2-0.2,0.5-0.4,0.7-0.6c0-0.1,0-0.2,0-0.4
		c0.2-0.2,0.5-0.4,0.7-0.6c0-0.2,0-0.4,0-0.6c0.1,0,0.2,0,0.4,0c0.2-1.1,1.3-1.6,1.9-2.3c0-0.1,0-0.1,0-0.2c0.1-0.1,0.2-0.1,0.4-0.2
		c0-0.1,0-0.2,0-0.4c0.1-0.1,0.2-0.1,0.4-0.2c0.2-0.3,0.5-0.6,0.7-1c0.1,0,0.2,0,0.4,0c0.1-0.1,0.1-0.2,0.2-0.4c0.1,0,0.2,0,0.4,0
		c0-0.1,0-0.1,0-0.2c0.1,0,0.2,0,0.4,0c0-0.1,0-0.1,0-0.2c0.2,0,0.4,0,0.6,0c0-0.1,0-0.1,0-0.2c0.1,0,0.2,0,0.4,0c0-0.1,0-0.1,0-0.2
		c0.1,0,0.2,0,0.4,0c0.1-0.1,0.1-0.2,0.2-0.4c0.2,0,0.4,0,0.6,0C22,9.1,22,9,22.1,8.8c0.3-0.1,0.6-0.1,1-0.2
		c0.1-0.1,0.1-0.2,0.2-0.4C23.9,8.1,24.5,8,25,7.8c0-0.2,0-0.4,0-0.6c0.2-0.1,0.4-0.4,0.4-0.4c0.2,0,0.5,0,0.7,0
		c0.1-0.2,0.2-0.4,0.4-0.6c0.4-0.1,0.9-0.1,1.4-0.2c0,0.1,0,0.2,0,0.4c0.7,0,1-0.1,1.4-0.4c0.1-0.1,0.1-0.2,0.2-0.4
		c0.4,0,0.9,0,1.4,0C31,5.5,31,5.4,31.1,5.2c0.3,0,0.6,0,1,0c0-0.1,0-0.2,0-0.4c0.6-0.1,0.5-0.2,1.2,0c0,0.1,0,0.1,0,0.2
		c0.2,0,0.5,0,0.7,0c0-0.1,0-0.1,0-0.2C34.3,4.7,34.3,5,34.4,5s0.1,0,0.2,0c0-0.1,0-0.1,0-0.2C34.7,4.9,34.8,4.9,35,5
		C34.8,6.5,34.9,6.7,35,6.9z"/>
	<path id="XMLID_31_" class="st3" d="M41.4,9c-0.1,0.3-0.1,0.3-0.2,0.7c0.1,0,0.1,0,0.2,0c0-0.1,0-0.1,0-0.2
		c0.1-0.1,0.4-0.2,0.2-0.6C41.5,9,41.4,9,41.4,9z"/>
	<path id="XMLID_30_" class="st3" d="M42.3,9c0.1,0.6,0.1,1.2,0.2,1.7c0.1,0,0.1,0,0.2,0c0.2-0.4,0.3-0.4,0.4-1
		C42.7,9.6,42.7,9.3,42.3,9z"/>
	<path id="XMLID_29_" class="st3" d="M48.5,33.2c0.1,0.2,0.1,0.4,0.2,0.6c-0.1,0-0.1,0-0.2,0c-0.3,0.5-0.6,0.4-1.4,0.4
		c-0.6-0.6-1.1,0.1-1.7,0c0-0.1,0-0.1,0-0.2c-0.5-0.1-0.7-0.1-1.2-0.2c0.1,0.2,0.1,0.4,0.2,0.6c-0.1,0-0.1,0-0.2,0
		c0,0.1,0,0.1,0,0.2c-0.2-0.1-0.2-0.2-0.4-0.4c0.6-1.5,1.1-1.4,3.1-1.4C47.1,33,48.1,33.1,48.5,33.2z"/>
	<path id="XMLID_28_" class="st3" d="M26.6,36.1c0,0.2,0,0.4,0,0.6c-0.2,0.1-0.4,0.1-0.6,0.2c0-0.1,0-0.1,0-0.2c-0.2,0-0.5,0-0.7,0
		c0,0.1,0,0.1,0,0.2c-0.1,0-0.1,0-0.2,0c0,0-0.1-0.3-0.4-0.2c-0.1,0.1-0.1,0.2-0.2,0.4c-0.2,0-0.4,0-0.6,0c0,0.1,0,0.1,0,0.2
		c-0.2,0.1-0.5,0.1-0.7,0.2c0-0.1,0-0.1,0-0.2c-0.1,0-0.1,0-0.2,0c0.1-0.2,0.1-0.4,0.2-0.6c0.4-0.2,0.3-0.2,0.7-0.4
		c0-0.1,0-0.2,0-0.4c0.1,0,0.2,0,0.4,0c0-0.1,0-0.1,0-0.2C25.1,35.8,25.9,35.9,26.6,36.1z"/>
	<path id="XMLID_27_" class="st3" d="M55.2,38.8c-0.2,0-0.4,0-0.6,0c-0.1,0.2-0.2,0.4-0.4,0.6c-0.1,0-0.1,0-0.2,0c0,0.1,0,0.2,0,0.4
		c-0.1,0-0.1,0-0.2,0c0,0.2,0,0.5,0,0.7c-0.1,0-0.1,0-0.2,0c0,0.2,0,0.4,0,0.6c-0.1,0-0.1,0-0.2,0c0,0.2,0,0.5,0,0.7
		c-0.1,0-0.1,0-0.2,0c-0.1,0.4-0.1,0.7-0.2,1.2c-0.3,0.5-0.6,1.1-1,1.6c-0.1,0-0.2,0-0.4,0c0-0.1,0-0.1,0-0.2c1.3-0.8,1.9-6,0.4-7
		c-0.6-0.6-2.8-0.9-3.9-1c-0.9-0.1-2.4,0.2-2.9-0.2c1.7,0,3.9-0.2,5.2,0.2c0.5,0,1.1,0,1.6,0c1.1,0,1.9,0.1,2.7,0.4
		C55,37.5,55.1,38.2,55.2,38.8z"/>
	<path id="XMLID_26_" class="st3" d="M43.8,36.5c0.4,0,0.9,0,1.4,0c0,0.1,0,0.1,0,0.2c-0.4,0-0.9,0-1.4,0
		C43.8,36.6,43.8,36.5,43.8,36.5z"/>
	<path id="XMLID_25_" class="st3" d="M42.7,36.7c0.3,0,0.6,0,1,0c0,0.1,0,0.1,0,0.2c-0.8,0.2-1.7,0.4-2.5,0.6c0-0.1,0-0.1,0-0.2
		c0.1,0,0.2,0,0.4,0c0-0.1,0-0.1,0-0.2c0.4-0.1,0.7-0.1,1.2-0.2C42.7,36.8,42.7,36.7,42.7,36.7z"/>
	<path id="XMLID_24_" class="st3" d="M40.6,37.4c0,0.1,0,0.2,0,0.4c-0.2,0.1-1.5,0.7-1.6,0.7c0,0.1,0,0.2,0,0.4
		c-0.2,0.2-0.6,1.1-0.4,1.7c0.1,0,0.1,0,0.2,0c0,0.3,0,0.6,0,1c0.1,0,0.1,0,0.2,0c0.1,0.4,0.1,0.7,0.2,1.2c0.1,0,0.1,0,0.2,0
		c0.1,0.4,0.2,0.7,0.4,1.2c0.4,0.3,0.7,0.6,1.2,1c0.1,0.1,0.1,0.2,0.2,0.4c0.7,0.2,1.6,0.5,2.3,0.7c-0.4,0-0.9,0-1.4,0
		c-0.4-0.6-1.1-0.4-1.7-0.7c-0.2-0.2-0.4-0.5-0.6-0.7c-0.1,0-0.1,0-0.2,0c0-0.1,0-0.2,0-0.4c-0.1-0.1-0.2-0.1-0.4-0.2
		c-0.6-0.9-1.3-2.6-1.6-3.9c-0.1,0-0.2,0-0.4,0c-0.1-0.1-0.1-0.2-0.2-0.4c-0.5,0-1.1,0-1.6,0c-0.2,0.2-0.4,0.5-0.6,0.7
		c-0.1,0-0.1,0-0.2,0c0,0.4,0,0.9,0,1.4c-0.1,0-0.1,0-0.2,0c-0.1,0.4-0.1,0.9-0.2,1.4c-0.1,0-0.1,0-0.2,0c0,0.1,0,0.2,0,0.4
		c-0.1,0-0.1,0-0.2,0c-0.1,0.4-0.1,0.7-0.2,1.2c-0.1,0.1-0.2,0.1-0.4,0.2c0,0.1,0,0.2,0,0.4c-0.3,0.4-0.9,0.6-1.2,1
		c-0.1,0-0.1,0-0.2,0c0-0.1,0-0.2,0-0.4c1.3-0.8,2.7-5.8,0.7-7c0-0.1,0-0.1,0-0.2c-0.4-0.1-0.9-0.1-1.4-0.2c0-0.1,0-0.1,0-0.2
		c-0.3,0-0.6,0-1,0c0-0.1,0-0.1,0-0.2c-0.3,0-0.6,0-1,0c0-0.1,0-0.1,0-0.2c-1.5,0-3,0-4.5,0c0,0.1,0,0.1,0,0.2c-0.2,0-0.5,0-0.7,0
		c0,0.1,0,0.1,0,0.2c-0.1,0-0.1,0-0.2,0c0-0.1,0-0.1,0-0.2c-0.1,0-0.1,0-0.2,0c0,0.1,0,0.1,0,0.2c-0.5,0.1-1.5,0.2-1.7,0
		c0.1,0,0.2,0,0.4,0c0-0.1,0-0.1,0-0.2c0.2,0,0.4,0,0.6,0c0-0.1,0-0.1,0-0.2c0.7-0.1,1.4-0.1,2.1-0.2c0-0.1,0-0.1,0-0.2
		c2,0.1,4,0.1,6,0.2c0,0.1,0,0.1,0,0.2c0.2,0,0.5,0,0.7,0c0,0.1,0,0.1,0,0.2c0.2,0,0.5,0,0.7,0c0,0.1,0,0.1,0,0.2c0.2,0,0.4,0,0.6,0
		c0,0.1,0,0.1,0,0.2c0.2,0,0.4,0,0.6,0c0,0.1,0,0.1,0,0.2c0.5,0,1.1,0,1.6,0c0,0.1,0,0.1,0,0.2c0.1,0,0.1,0,0.2,0c0-0.1,0-0.1,0-0.2
		c0.3,0,0.6,0,1,0c0-0.1,0-0.1,0-0.2c0.5,0,1.1,0,1.6,0c0.1-0.2,0.2-0.4,0.4-0.6c0.2,0,0.5,0,0.7,0c0.1-0.1,0.1-0.2,0.2-0.4
		C39.9,37.5,40.2,37.5,40.6,37.4z"/>
	<path id="XMLID_23_" class="st3" d="M50.6,39.2c0,0.2,0,0.4,0,0.6c-0.1,0-0.1,0-0.2,0C50,40.2,48.2,40,47.3,40
		c-0.1-0.2-0.1-0.4-0.2-0.6c-0.1,0-0.1,0-0.2,0c0,0.1,0,0.2,0,0.4c-0.1,0-0.1,0-0.2,0c0,0.2,0,0.4,0,0.6C46,40.5,45,40.6,44,40.6
		c-0.1-0.2-0.1-0.4-0.2-0.6c-0.1,0-0.1,0-0.2,0c0-0.2,0-0.5,0-0.7c0.3-0.1,0.4-0.2,1-0.2c0.2,0.1,1,0.2,1.6,0
		C47.7,38.5,49.2,39,50.6,39.2z"/>
	<path id="XMLID_22_" class="st3" d="M59.5,38.8c-0.2,0.6-0.6,0.9,0.2,1.4c0,0.1,0,0.1,0,0.2c0.1,0,0.1,0,0.2,0c0-0.1,0-0.1,0-0.2
		c0.1,0,0.1,0,0.2,0c0-0.3,0-0.6,0-1c0.1,0,0.1,0,0.2,0c0-0.1,0-0.1,0-0.2C59.8,39,59.8,38.9,59.5,38.8z"/>
	<path id="XMLID_21_" class="st3" d="M43.1,39.2c0.1,0,0.2,0,0.4,0c-0.1,0.8-0.2,0.5-0.4,1.4c-0.6,0.1-0.7,0.3-1.4,0.4
		c0-0.1,0-0.1,0-0.2c0.3-0.2,0.5-0.5,0.6-1c0.2-0.1,0.5-0.1,0.7-0.2C43.1,39.4,43.1,39.3,43.1,39.2z"/>
	<path id="XMLID_20_" class="st3" d="M30.3,41.7c-1.6,0-1-0.1-1.7-0.7c-0.1,0.7-0.2,0.9-1,1c0,0.1,0,0.2,0,0.4
		c-0.6,0.1-1.2,0.1-1.7,0.2c-0.1-0.2-0.1-0.4-0.2-0.6c-0.1,0-0.1,0-0.2,0c0-0.2,0-0.5,0-0.7c1.7-0.1,3-0.6,4.7,0
		C30.2,41.3,30.2,41.5,30.3,41.7z"/>
	<path id="XMLID_19_" class="st3" d="M24.5,41.3c0.2,0,0.5,0,0.7,0c0,0.1,0,0.2,0,0.4c-0.1,0-0.2,0-0.4,0c0,0.2,0,0.4,0,0.6
		c-0.5,0.2-0.3,0.3-1.2,0.4c-0.3,0.3-1.1,0.2-1.7,0.2c0-0.1,0-0.1,0-0.2c0.2-0.2,0.1,0,0.2-0.4c0.9-0.2,1.2-0.6,2.3-0.6
		C24.5,41.6,24.5,41.5,24.5,41.3z"/>
	<path id="XMLID_18_" class="st3" d="M51,45c0.1,0,0.2,0,0.4,0c0,0.1,0,0.1,0,0.2C51,45.1,51.2,45.2,51,45z"/>
	<path id="XMLID_17_" class="st3" d="M50,45.4c0.2,0,0.4,0,0.6,0c0,0.1,0,0.1,0,0.2c-0.2,0-0.4,0-0.6,0C50,45.5,50,45.4,50,45.4z"/>
	<path id="XMLID_16_" class="st3" d="M48.7,45.7c0.2,0,0.4,0,0.6,0c0,0.1,0,0.1,0,0.2c-0.2,0-0.4,0-0.6,0
		C48.7,45.9,48.7,45.8,48.7,45.7z"/>
	<path id="XMLID_15_" class="st3" d="M31.1,46.5c0.1,0,0.2,0,0.4,0c0,0.1,0,0.1,0,0.2C31.1,46.6,31.3,46.7,31.1,46.5z"/>
	<path id="XMLID_14_" class="st3" d="M30.5,46.7c0.2,0,0.4,0,0.6,0c0,0.1,0,0.1,0,0.2c-0.2,0-0.4,0-0.6,0
		C30.5,46.9,30.5,46.8,30.5,46.7z"/>
	<path id="XMLID_13_" class="st3" d="M21.4,46.9c0.1,0,0.2,0,0.4,0c0,0.1,0,0.1,0,0.2C21.4,47,21.7,47.1,21.4,46.9z"/>
	<path id="XMLID_12_" class="st3" d="M29.9,46.9c0.2,0,0.4,0,0.6,0c0,0.1,0,0.1,0,0.2c-0.2,0-0.4,0-0.6,0C29.9,47,29.9,47,29.9,46.9
		z"/>
	<path id="XMLID_11_" class="st3" d="M21.8,47.1c0.1,0,0.2,0,0.4,0c0,0.1,0,0.1,0,0.2C21.8,47.2,22,47.3,21.8,47.1z"/>
	<path id="XMLID_10_" class="st3" d="M22.2,47.3c0.6,0,1.9,0.1,2.1,0.4c-0.5,0-1.1,0-1.6,0c0-0.1,0-0.1,0-0.2c-0.2,0-0.4,0-0.6,0
		C22.2,47.4,22.2,47.4,22.2,47.3z"/>
	<path id="XMLID_9_" class="st3" d="M28,47.3c0.2,0,0.5,0,0.7,0c0,0.1,0,0.1,0,0.2c-0.2,0-0.5,0-0.7,0C28,47.4,28,47.4,28,47.3z"/>
	<path id="XMLID_8_" class="st3" d="M40.6,51.1c-0.3-0.1-0.6-0.1-1-0.2c0,0.1,0,0.1,0,0.2c-0.5,0.1-1.1,0.1-1.6,0.2
		c0.1-0.6,0.1-0.4,0.6-0.6c0.3-0.3,1.1-0.2,1.7-0.2C40.4,50.8,40.5,51,40.6,51.1z"/>
	<path id="XMLID_7_" class="st3" d="M33.2,52.3c0-0.2,0-0.4,0-0.6c0.1,0,0.1,0,0.2,0c0.4-0.6,1.1-0.6,2.1-0.6
		c0.1,0.2,0.2,0.4,0.4,0.6C35,51.9,34.1,52.1,33.2,52.3z"/>
	<path id="XMLID_6_" class="st3" d="M44.4,57.4c0,0.1,0,0.2,0,0.4c-0.2,0-0.4,0-0.6,0c0,0.1,0,0.1,0,0.2c-1.3,0-2.5,0-3.9,0
		c0,0.1,0,0.1,0,0.2c-0.5,0-1.1,0-1.6,0c0-0.1,0-0.1,0-0.2c0.1,0,0.2,0,0.4,0c0.4-0.4,1.2,0,1.9-0.2c0-0.1,0-0.1,0-0.2
		c1,0,1.9,0,2.9,0c0-0.1,0-0.1,0-0.2C43.9,57.4,44.2,57.4,44.4,57.4z"/>
	<path id="XMLID_5_" class="st3" d="M35.7,58.5c-0.3,0.1-0.6,0.1-1,0.2c0,0.1,0,0.1,0,0.2c-0.4,0.1-0.9,0.1-1.4,0.2
		c0,0.1,0,0.1,0,0.2c-0.7,0.1-1.4,0.1-2.1,0.2c0-0.1,0-0.2,0-0.4c0.4,0,0.9,0,1.4,0c0-0.1,0-0.1,0-0.2c0.1,0,0.2,0,0.4,0
		c0-0.1,0-0.1,0-0.2c0.6-0.1,1.3-0.2,1.9-0.4c0.2,0,0.7-0.2,0.7-0.2C35.7,58.2,35.7,58.4,35.7,58.5z"/>
	<path id="XMLID_4_" class="st3" d="M35.9,58.1c0.5,0,1.1,0,1.6,0c0,0.1,0,0.1,0,0.2c-0.5,0-1.1,0-1.6,0
		C35.9,58.2,35.9,58.2,35.9,58.1z"/>
	<path id="XMLID_3_" class="st3" d="M55.8,69.5c0.4,0.1,0.5,0.2,0.7,0.4c0,0.1,0,0.1,0,0.2c0.1,0,0.2,0,0.4,0
		c0.1,0.1,0.1,0.2,0.2,0.4c0.1,0,0.2,0,0.4,0c0,0.1,0,0.1,0,0.2c0.1,0.1,0.2,0.1,0.4,0.2c0,0.1,0,0.2,0,0.4c0.2,0.1,0.4,0.2,0.6,0.4
		c0.4,1.2,0.7,2.3,1.2,3.5c0,0.5,0,1.1,0,1.6c0.2,0.6,0.4,2.8,0.2,3.7c-0.1,0-0.1,0-0.2,0c0,0.3,0,0.6,0,1c-0.1,0-0.1,0-0.2,0
		c0,0.1,0,0.2,0,0.4c-0.1,0-0.1,0-0.2,0c0,0.2,0,0.5,0,0.7c-0.1,0-0.1,0-0.2,0c-0.1,0.2-0.1,0.5-0.2,0.7c-0.1,0-0.1,0-0.2,0
		c0,0.1,0,0.2,0,0.4c-0.1,0-0.1,0-0.2,0c-0.1,0.2-0.1,0.4-0.2,0.6c-0.1,0.1-0.2,0.1-0.4,0.2c0,0.1,0,0.2,0,0.4
		c-0.2,0.1-0.4,0.2-0.6,0.4c0,0.1,0,0.2,0,0.4c-0.1,0.1-0.2,0.1-0.4,0.2c0,0.1,0,0.2,0,0.4c-0.5,0.4-1.1,0.9-1.6,1.4
		c-0.3,0.4-0.6,0.7-1,1.2c-0.1,0-0.2,0-0.4,0c-0.1,0.1-0.1,0.2-0.2,0.4c-0.2,0.1-0.5,0.1-0.7,0.2c-0.1,0.1-0.1,0.2-0.2,0.4
		c-0.2,0.1-0.5,0.1-0.7,0.2c0,0.1,0,0.1,0,0.2c-0.1,0-0.2,0-0.4,0c0,0.1,0,0.1,0,0.2c-0.4,0.1-0.7,0.2-1.2,0.4c0,0.1,0,0.1,0,0.2
		c-0.2,0-0.4,0-0.6,0c0,0.1,0,0.1,0,0.2c-0.1,0-0.2,0-0.4,0c0,0.1,0,0.1,0,0.2c-0.2,0-0.4,0-0.6,0c0,0.1,0,0.1,0,0.2
		c-0.2,0-0.4,0-0.6,0c0,0.1,0,0.1,0,0.2c-0.2,0-0.5,0-0.7,0c0,0.1,0,0.1,0,0.2c-0.2,0-0.5,0-0.7,0c0,0.1,0,0.1,0,0.2
		c-0.2,0-0.5,0-0.7,0c0,0.1,0,0.1,0,0.2c-0.2,0-0.5,0-0.7,0c0,0.1,0,0.1,0,0.2c-1,0.1-1.9,0.1-2.9,0.2c0,0.1,0,0.1,0,0.2
		c-0.9,0.2-4.9,0-5.6-0.2c-0.5,0-1.1,0-1.6,0c0-0.1,0-0.1,0-0.2c-0.4,0-0.7,0-1.2,0c0-0.1,0-0.1,0-0.2c-0.2,0-0.5,0-0.7,0
		c0-0.1,0-0.1,0-0.2c-0.2,0-0.5,0-0.7,0c0-0.1,0-0.1,0-0.2c-0.3,0-0.6,0-1,0c0-0.1,0-0.1,0-0.2c-0.2,0-0.4,0-0.6,0
		c0-0.1,0-0.1,0-0.2c-0.2,0-0.4,0-0.6,0c0-0.1,0-0.1,0-0.2c-0.2,0-0.4,0-0.6,0c0-0.1,0-0.1,0-0.2c-0.2,0-0.4,0-0.6,0
		c0-0.1,0-0.1,0-0.2c-0.2-0.1-0.5-0.1-0.7-0.2c0-0.1,0-0.1,0-0.2c-0.3-0.1-0.6-0.1-1-0.2c-0.1-0.1-0.1-0.2-0.2-0.4
		c-0.4-0.1-0.7-0.2-1.2-0.4c0-0.1,0-0.1,0-0.2c-0.2-0.1-0.4-0.1-0.6-0.2c-0.1-0.1-0.1-0.2-0.2-0.4c-0.2-0.1-0.5-0.1-0.7-0.2
		c-0.1-0.2-0.2-0.4-0.4-0.6c-0.1,0-0.2,0-0.4,0c-1.3-1.2-2.5-2.4-3.9-3.7c0-0.1,0-0.2,0-0.4c-0.2-0.2-0.5-0.4-0.7-0.6
		c0-0.1,0-0.2,0-0.4c-0.2-0.1-0.4-0.2-0.6-0.4c0-0.1,0-0.2,0-0.4c-0.2-0.1-0.4-0.2-0.6-0.4c0-0.1,0-0.2,0-0.4
		c-0.1-0.1-0.2-0.1-0.4-0.2c0-0.1,0-0.2,0-0.4c-0.1,0-0.1,0-0.2,0c-0.2-0.4-0.1-0.5-0.4-0.7c0.1-0.1,0.1-0.2,0.2-0.4
		c0.1,0,0.1,0,0.2,0c0,0.1,0,0.1,0,0.2c0.2,0.2,0.1,0,0.2,0.4c0.1,0,0.2,0,0.4,0c-0.1-0.4-0.2-0.6-0.4-1c0.9-0.6,0.8-2,1.9-2.3
		c0,0.1,0,0.1,0,0.2c0.8,0.5,0.2,0.3,0.6,1c0.1,0.1,0.2,0.1,0.4,0.2c0,0.2,0,0.4,0,0.6c0.1,0,0.1,0,0.2,0c0.1,0.2,0.1,0.5,0.2,0.7
		c0.1,0,0.1,0,0.2,0c0.1,0.2,0.1,0.5,0.2,0.7c0.1,0.1,0.2,0.1,0.4,0.2c0.1,0.2,0.1,0.5,0.2,0.7c0.1,0.1,0.2,0.1,0.4,0.2
		c0,0.1,0,0.2,0,0.4c0.1,0,0.1,0,0.2,0c0.2,0.3,0.2,0.4,0.4,0.7c0.1,0,0.2,0,0.4,0c0,0.1,0,0.2,0,0.4c0.4,0.4,0.9,0.7,1.4,1.2
		c0.1,0.1,0.1,0.2,0.2,0.4c0.2,0.1,0.4,0.1,0.6,0.2c0.2,0.2,0.4,0.5,0.6,0.7c0.2,0.1,0.5,0.1,0.7,0.2c0.1,0.2,0.2,0.4,0.4,0.6
		c0.1,0,0.2,0,0.4,0c0,0.1,0,0.1,0,0.2c0.1,0,0.2,0,0.4,0c0,0.1,0,0.1,0,0.2c0.1,0,0.2,0,0.4,0c0,0.1,0,0.1,0,0.2c0.1,0,0.2,0,0.4,0
		c0,0.1,0,0.1,0,0.2c0.1,0,0.2,0,0.4,0c0,0.1,0,0.1,0,0.2c0.1,0,0.2,0,0.4,0c0,0.1,0,0.1,0,0.2c0.4,0.1,0.7,0.2,1.2,0.4
		c0,0.1,0,0.1,0,0.2c0.4,0.1,0.9,0.1,1.4,0.2c0.1,0.1,0.1,0.2,0.2,0.4c0.7,0.1,1.6,0.2,2.3,0.4c0,0.1,0,0.1,0,0.2
		c0.8,0.2,5,0.7,6.2,0.4c0-0.1,0-0.1,0-0.2c1.1-0.1,2.2-0.1,3.3-0.2c0-0.1,0-0.1,0-0.2c0.2,0,0.5,0,0.7,0c0-0.1,0-0.1,0-0.2
		c0.2,0,0.5,0,0.7,0c0-0.1,0-0.1,0-0.2c0.3,0,0.6,0,1,0c0-0.1,0-0.1,0-0.2c0.1,0,0.2,0,0.4,0c0-0.1,0-0.1,0-0.2c0.2,0,0.4,0,0.6,0
		c0-0.1,0-0.1,0-0.2c0.4-0.1,0.7-0.1,1.2-0.2c0-0.1,0-0.1,0-0.2c0.2-0.1,0.5-0.1,0.7-0.2c0.1-0.1,0.1-0.2,0.2-0.4
		c0.4-0.1,0.9-0.2,1.4-0.4c0-0.1,0-0.2,0-0.4c1.7-0.2,2.2-1.9,3.7-2.3c0-0.1,0-0.2,0-0.4c0.1,0,0.2,0,0.4,0c0.4-0.5,0.7-1.1,1.2-1.6
		c0.1-0.1,0.2-0.1,0.4-0.2c0-0.2,0-0.4,0-0.6c0.1-0.1,0.2-0.1,0.4-0.2c0-0.1,0-0.2,0-0.4c0.1-0.1,0.2-0.1,0.4-0.2
		c0.1-0.6,0.2-1.2,0.4-1.7c0.1,0,0.2,0,0.4,0c0.1-2.2,0-4.1-0.6-5.6c0-0.2,0-0.4,0-0.6c-0.1-0.1-0.2-0.1-0.4-0.2
		c-0.1-0.3-0.1-0.6-0.2-1c-0.2-0.1-0.4-0.2-0.6-0.4C56.1,70.6,55.9,70.2,55.8,69.5z"/>
	<path id="XMLID_2_" class="st3" d="M19.3,78.2c0.1,0.1,0.1,0.2,0.2,0.4c0.1,0,0.1,0,0.2,0c0-0.1,0-0.1,0-0.2c0.1,0,0.1,0,0.2,0
		c0-0.1,0-0.1,0-0.2C19.7,78.2,19.5,78.2,19.3,78.2z"/>
	<path id="XMLID_1_" class="st3" d="M20.7,84c0.3,0.4,0.4,0.4,0.4,0.4C21.2,84.2,20.7,84,20.7,84z"/>
</g>
</svg>
