<?xml version="1.0" encoding="utf-8"?>
<!-- Generator: Adobe Illustrator 20.0.0, SVG Export Plug-In . SVG Version: 6.00 Build 0)  -->
<svg version="1.1" id="图层_1" xmlns="http://www.w3.org/2000/svg" xmlns:xlink="http://www.w3.org/1999/xlink" x="0px" y="0px"
	 viewBox="0 0 370.3 370.3" style="enable-background:new 0 0 370.3 370.3;" xml:space="preserve">
<style type="text/css">
	.st0{fill:#F5F5F5;}
	.st1{fill:#85C79C;}
	.st2{fill:#555555;}
</style>
<g>
	<circle class="st0" cx="185.1" cy="185.1" r="169.5"/>
	<path class="st1" d="M185.1,0C82.9,0,0,82.9,0,185.1s82.9,185.1,185.1,185.1s185.1-82.9,185.1-185.1C370.3,82.9,287.4,0,185.1,0z
		 M185.1,351c-91.6,0-165.8-74.2-165.8-165.8S93.5,19.4,185.1,19.4S351,93.6,351,185.1C351,276.7,276.7,351,185.1,351z"/>
</g>
<g>
	<circle class="st0" cx="180.9" cy="170.3" r="169.5"/>
	<g id="XMLID_33_">
		<path id="XMLID_32_" class="st2" d="M178.1,33.4c1.3-0.3,2.9-0.6,4.4-1.3c0-0.3,0-0.3,0-0.6c1.6,0,3.5,0,5.1,0
			c-0.3,1.3-0.3,2.2-0.6,3.8c0.6-0.3,1.6-0.3,2.2-0.6c0.6-2.5,2.2-2.5,5.4-2.2c0,0.3,0,0.3,0,0.6c0.6,0,1.3,0,1.9,0
			c0,0.3,0,0.3,0,0.6c1.3,0.6,1.3,1,3.2,1.3c0-0.3,0-0.3,0-0.6c0.3,0,0.3,0,0.6,0c-0.3-0.3-0.3-0.6-0.6-1.3c1.9,0,3.8,0,5.4,0
			c1.3,1.9,2.9,1.3,5.1,2.2c0.3,0.3,0.3,0.6,0.6,1.3c0.6-0.3,1.3-0.3,1.9-0.6c0.3,0.3,0.3,0.6,0.6,1.3c1,0.3,1.9,0.3,3.2,0.6
			c0,0.3,0,0.3,0,0.6c0.6,0.3,1.6,0.3,2.2,0.6c0,0.3,0,0.3,0,0.6c1.3,0.3,2.9,0.3,4.4,0.6c0,0.3,0,0.3,0,0.6c0.6,0.6,1,0.3,2.2,0.6
			c0,0.3,0,0.6,0,1.3c0.6,0.3,1,1.3,1.3,1.3c1,0.3,1.9,0.3,3.2,0.6c0.3,0.3,0.3,0.6,0.6,1.3c0.3,0,0.6,0,1.3,0c0,0.3,0,0.3,0,0.6
			c0.6,0.3,1.6,0.3,2.2,0.6c0.3,0.3,0.3,0.6,0.6,1.3c1.3,1.3,2.2,2.5,4.4,3.2c0,0.3,0,0.6,0,1.3c2.9,0.6,2.2,2.2,3.8,4.4
			c0.6,0.3,1.3,0.6,1.9,1.3c0.6,0.6,1.3,1.6,1.9,2.2c0.3,0,0.3,0,0.6,0c0,0.3,0,0.6,0,1.3c0.3,0,0.3,0,0.6,0
			c1.3,1.6,3.2,2.9,3.8,5.1c1.9,0.3,1.6,0.6,2.2,1.9c0.3,0,0.3,0,0.6,0c0,0.6,0,1.3,0,1.9c0.3,0.3,0.6,0.3,1.3,0.6
			c0.3,0.6,0.3,1.6,0.6,2.2c0.3,0.3,0.6,0.3,1.3,0.6c0,0.6,0,1.3,0,1.9c0.3,0,0.3,0,0.6,0c0,0.6,0,1.6,0,2.2c0.3,0,0.3,0,0.6,0
			c0,0.3,0,0.6,0,1.3c0.3,0,0.3,0,0.6,0c0,0.6,0,1.3,0,1.9c0.3,0,0.3,0,0.6,0c0,0.3,0,0.6,0,1.3c0.3,0,0.3,0,0.6,0
			c0.3,1.3,0.3,2.2,0.6,3.8c0.3,0.3,0.6,0.3,1.3,0.6c0,0.3,0,0.6,0,1.3c0.3,0,0.3,0,0.6,0c0.3,2.5,0.3,5.4,0.6,7.9
			c0.3,0,0.3,0,0.6,0c0,0.6,0,1.6,0,2.2c0.3,0,0.3,0,0.6,0c0,1.6,0,3.5,0,5.1c0.3,0,0.3,0,0.6,0c-0.3,0.3-0.3,0.6-0.6,1.3
			c0,0,0.6,0.3,0.6,1.9c-0.3,0.6-0.6-0.3-0.6,0.6c0.3,0,0.3,0,0.6,0c0,0.6,0,1.6,0,2.2c-0.3,0-0.3,0-0.6,0c-0.3,1,0.6,1,0.6,1.3
			c0,2.2,0,5.1,0,7.3c-0.3,0.6-0.6-0.3-0.6,0.6c0,0,1,0.6,0.6,1.9c-1.3,5.1-1.9,9.5-1.9,15.9c-1.9-0.3-1.3-0.6-3.2-1.3
			c0-0.3,0-0.6,0-1.3c-0.6,0.6-0.3,0-0.6,1.3c-0.3,0-0.3,0-0.6,0c0,0.3,0,0.3,0,0.6c0.3,0,0.3,0,0.6,0c0,0.6,0,1.6,0,2.2
			c0.3,0,0.3,0,0.6,0c0,0.3,0,0.3,0,0.6c-0.3,0-0.3,0-0.6,0c0,1,0,1.9,0,3.2c-0.3,0-0.3,0-0.6,0c0,0.6,0,1.6,0,2.2
			c-0.3,0-0.3,0-0.6,0c0-0.3,0-0.6,0-1.3c-0.6-0.6-1.3-1.6-1.9-2.2c-0.3,0-0.3,0-0.6,0c0,0.3,0,0.3,0,0.6c-1.3,1.3,0,3.8-0.6,6
			c-0.6,1.6-1.6,2.5-1.9,5.1c-0.6,0.3-1.6,0.3-2.2,0.6c0-5.1-1.3-10.2-2.2-14.3c0-1.3,0-2.9,0-4.4c0,0-1.6-1.3-1.9-1.9
			c1.3,0,2.9,0,4.4,0c0-0.3,0-0.3,0-0.6c1-1,0.6-3.5,0.6-5.4c-0.3-0.3-0.6-0.3-1.3-0.6c0-0.3,0-0.3,0-0.6c-0.3,0-0.3,0-0.6,0
			c0,0.3,0,0.3,0,0.6c-1.3,0-2.9,0-4.4,0c0.3-0.6,1-1.3,0.6-2.2c-0.3,0-0.3,0-0.6,0c0-0.3,0-0.6,0-1.3c-0.3-0.3-0.6-0.3-1.3-0.6
			c-0.3-1-0.3-1.9-0.6-3.2c-0.3-0.3-0.6-0.3-1.3-0.6c0-0.3,0-0.6,0-1.3c-0.6-0.3-1.3-0.6-1.9-1.3c0-0.3,0-0.6,0-1.3
			c-0.3,0-0.3,0-0.6,0c0-0.3,0-0.6,0-1.3c-0.3,0-0.3,0-0.6,0c-0.6-1.3-1.3-1.3-1.9-3.2c-2.2-0.6-0.6-0.3-1.9-1.9c-0.3,0-0.3,0-0.6,0
			c0-0.3,0-0.6,0-1.3c-0.3-0.3-0.6-0.3-1.3-0.6c0-0.3,0-0.6,0-1.3c-0.3,0-0.3,0-0.6,0c-0.3-1.9-0.6-4.1-1.3-6c-0.3,0-0.3,0-0.6,0
			c0-0.6,0-1.6,0-2.2c-0.3-0.3-0.6,0-1.3-1.9c-2.2-0.3-2.2-0.3-3.8-1.3c0-0.3,0-0.3,0-0.6c-0.6,0-1.3,0-1.9,0c0-0.3,0-0.3,0-0.6
			c-1.9-0.3-1.3,1.3-3.2,1.3c0-0.3,0-0.3,0-0.6c-0.6,0-1.6,0-2.2,0c0,0.3,0,0.3,0,0.6c-2.5,0-5.4,0-7.9,0c0,0.3,0,0.3,0,0.6
			c-0.6,0-1.3,0-1.9,0c0,0.3,0,0.3,0,0.6c-0.6,0-1.6,0-2.2,0c0,0.3,0,0.3,0,0.6c-3.8,0-7.6,0-11.7,0c-2.9,0.6-6.7,1.9-9.8,2.2
			c0-0.3,0-0.3,0-0.6c0.6-0.6,0.3,0,0.6-1.3c-4.8,0.3-4.4,3.8-6.7,6.7c-0.6,0.3-1.3,0.3-1.9,0.6c0,0.3,0,0.3,0,0.6
			c-0.3,0-0.6,0-1.3,0c-0.3,0.6-0.6,1.3-1.3,1.9c-1.9-0.6-1-0.3-3.2,0c0-3.8,0-7.3,0-11.1c-0.3,0-0.6,0-1.3,0c0-1.9,0-3.8,0-5.4
			c-0.3,0-0.6,0-1.3,0c0.3,0.3,0.3,0.6,0.6,1.3c-0.6,0-1.6,0-2.2,0c0,0.3,0,0.3,0,0.6c-0.6,0.3-1.3,0.6-1.9,1.3c0,0.6,0,1.3,0,1.9
			c-0.3,0-0.3,0-0.6,0c0,0.3,0,0.6,0,1.3c-0.3,0-0.3,0-0.6,0c0,0.3,0,0.6,0,1.3c-0.3,0.3-0.6,0.3-1.3,0.6c0,0.6,0,1.6,0,2.2
			c-0.3,0.3-0.6,0.3-1.3,0.6c0,0.3,0,0.6,0,1.3c-0.3,0-0.3,0-0.6,0c0,0.3,0,0.6,0,1.3c-0.3,0-0.3,0-0.6,0c-0.3,1-0.3,1.9-0.6,3.2
			c0.6-1.6,0-1.6-0.3-1.3c-0.3,0.6-0.3,1.6-0.6,2.2c-0.3,0.3-0.6,0.3-1.3,0.6c0,0.3,0,0.6,0,1.3c-0.6,0.3-1.6,0.6-2.2,1.3
			c0,0.3,0,0.6,0,1.3c-0.3,0-0.3,0-0.6,0c-0.3,0.6-0.6,1.3-1.3,1.9c-0.3,0-0.6,0-1.3,0c0,0.3,0,0.3,0,0.6c-1.6-0.3-3.5-0.3-5.1-0.6
			c-0.3,0.3-0.3,0.6-0.6,1.3c-0.6,0-1.6,0-2.2,0c0,0.3,0,0.3,0,0.6c-0.6,0.3-1.6,0.3-2.2,0.6c-0.3,0.3-0.3,0.6-0.6,1.3
			c-0.3,0-0.6,0-1.3,0c-0.3,0.3-0.3,0.6-0.6,1.3c-1.3,0.3-2.2,0.6-3.8,1.3c-0.3,0.6-0.3,1.3-0.6,1.9c-0.6,0.3-1.3,0.6-1.9,1.3
			c0,0.3,0,0.3,0,0.6c-0.6,0-1.6,0-2.2,0c-2.2,0.6-3.8,2.2-4.4,5.1c-1.9,0.3-1.3,0.3-1.9,1.9c-0.6,0-1.3,0-1.9,0
			c-0.3,1.9-1.3,2.2-1.9,4.4c0.3,0,0.3,0,0.6,0c0,0.3,0,0.3,0,0.6c1,0,1.9,0,3.2,0c1.3-1.3,7.9-1.9,11.1-1.9c0,0.3,0,0.3,0,0.6
			c-0.3,0-0.3,0-0.6,0c-0.6,0.6-3.8,1.9-4.4,2.2c0,0.3,0,0.6,0,1.3c-1.6,1.3-1.3,4.4-1.3,7.3c0.3,5.4,3.2,9.2,5.1,12.7
			c-0.3,0-0.6,0-1.3,0c-0.3-0.6-1-0.6-1.3-1.3c0-0.3,0-0.6,0-1.3c-0.3-0.3-0.6-0.3-1.3-0.6c0-0.3,0-0.6,0-1.3c-0.3,0-0.3,0-0.6,0
			c0-0.3,0-0.6,0-1.3c-0.3,0-0.3,0-0.6,0c0-0.6,0-1.3,0-1.9c-1.6-2.5-3.5-5.4-5.1-7.9c-0.6,0.3-4.8,1.9-5.1,2.2c0,6.7,0,13.3,0,20.3
			c-0.6-0.3-1.6-0.3-2.2-0.6c-0.3-0.6-0.3-1.3-0.6-1.9c-0.3,0-0.3,0-0.6,0c0-0.6,0-1.3,0-1.9c-0.3,0-0.3,0-0.6,0
			c-0.3-1-0.3-1.9-0.6-3.2c-0.3,0-0.3,0-0.6,0c-0.3,0.3,0,1-1.3,0.6c0-0.3,0-0.3,0-0.6c-1-1-1.3-2.9-1.9-4.4c-0.3,0-0.3,0-0.6,0
			c-0.3,0.3-0.3,3.8-1.3,1.9c-0.3,0-0.3,0-0.6,0c-0.6-0.6-0.3-2.5-1.3-3.2c-0.6,0-1.3,0-1.9,0c0-0.3,0-0.3,0-0.6
			c-0.6-0.3-1.3-0.3-1.9-0.6c0-2.5,0-5.4,0-7.9c-0.6-0.3-1.3-0.6-1.9-1.3c0-1,0-1.9,0-3.2c-0.3-0.3-0.6-0.3-1.3-0.6
			c0-0.3,0-0.6,0-1.3c-0.3,0-0.3,0-0.6,0c-0.6-2.2,0.6-5.4-0.6-6.7c-0.6-0.6,0-0.3-1.3-0.6c0-1,0-1.9,0-3.2c-0.3,0-0.3,0-0.6,0
			c0-0.3,0-0.3,0-0.6c0.3,0,0.3,0,0.6,0c0-0.3,0-0.3,0-0.6c-0.3-0.3-0.6-0.3-1.3-0.6c0-0.3,0-0.6,0-1.3c-0.3,0-0.3,0-0.6,0
			c0-3.8,0-7.3,0-11.1c0-11.7,1.6-20.9,5.1-29.5c0-0.6,0-1.3,0-1.9c0.3,0,0.3,0,0.6,0c0-0.6,0-1.3,0-1.9c0.3-0.3,0.6-0.3,1.3-0.6
			c0-0.6,0-1.3,0-1.9c0.3,0,0.3,0,0.6,0c0-0.3,0-0.6,0-1.3c0.3,0,0.3,0,0.6,0c0-0.3,0-0.6,0-1.3c0.3,0,0.3,0,0.6,0
			c1-1.9-0.6-1.3,1.9-1.9c0-0.6,0-1.3,0-1.9c0.6-0.3,1.3-0.6,1.9-1.3c0-0.3,0-0.6,0-1.3c0.6-0.6,1.6-1.3,2.2-1.9c0-0.3,0-0.6,0-1.3
			c0.6-0.6,1.6-1.3,2.2-1.9c0-0.6,0-1.3,0-1.9c0.3,0,0.6,0,1.3,0c0.6-3.5,4.1-5.1,6-7.3c0-0.3,0-0.3,0-0.6c0.3-0.3,0.6-0.3,1.3-0.6
			c0-0.3,0-0.6,0-1.3c0.3-0.3,0.6-0.3,1.3-0.6c0.6-1,1.6-1.9,2.2-3.2c0.3,0,0.6,0,1.3,0c0.3-0.3,0.3-0.6,0.6-1.3c0.3,0,0.6,0,1.3,0
			c0-0.3,0-0.3,0-0.6c0.3,0,0.6,0,1.3,0c0-0.3,0-0.3,0-0.6c0.6,0,1.3,0,1.9,0c0-0.3,0-0.3,0-0.6c0.3,0,0.6,0,1.3,0
			c0-0.3,0-0.3,0-0.6c0.3,0,0.6,0,1.3,0c0.3-0.3,0.3-0.6,0.6-1.3c0.6,0,1.3,0,1.9,0c0.3-0.3,0.3-0.6,0.6-1.3c1-0.3,1.9-0.3,3.2-0.6
			c0.3-0.3,0.3-0.6,0.6-1.3c1.9-0.3,3.8-0.6,5.4-1.3c0-0.6,0-1.3,0-1.9c0.6-0.3,1.3-1.3,1.3-1.3c0.6,0,1.6,0,2.2,0
			c0.3-0.6,0.6-1.3,1.3-1.9c1.3-0.3,2.9-0.3,4.4-0.6c0,0.3,0,0.6,0,1.3c2.2,0,3.2-0.3,4.4-1.3c0.3-0.3,0.3-0.6,0.6-1.3
			c1.3,0,2.9,0,4.4,0c0.3-0.3,0.3-0.6,0.6-1.3c1,0,1.9,0,3.2,0c0-0.3,0-0.6,0-1.3c1.9-0.3,1.6-0.6,3.8,0c0,0.3,0,0.3,0,0.6
			c0.6,0,1.6,0,2.2,0c0-0.3,0-0.3,0-0.6c1-0.3,1,0.6,1.3,0.6s0.3,0,0.6,0c0-0.3,0-0.3,0-0.6c0.3,0.3,0.6,0.3,1.3,0.6
			C177.4,32.1,177.7,32.7,178.1,33.4z"/>
		<path id="XMLID_31_" class="st2" d="M198.4,40c-0.3,1-0.3,1-0.6,2.2c0.3,0,0.3,0,0.6,0c0-0.3,0-0.3,0-0.6c0.3-0.3,1.3-0.6,0.6-1.9
			C198.7,40,198.4,40,198.4,40z"/>
		<path id="XMLID_30_" class="st2" d="M201.2,40c0.3,1.9,0.3,3.8,0.6,5.4c0.3,0,0.3,0,0.6,0c0.6-1.3,1-1.3,1.3-3.2
			C202.5,41.9,202.5,41,201.2,40z"/>
		<path id="XMLID_29_" class="st2" d="M220.9,116.8c0.3,0.6,0.3,1.3,0.6,1.9c-0.3,0-0.3,0-0.6,0c-1,1.6-1.9,1.3-4.4,1.3
			c-1.9-1.9-3.5,0.3-5.4,0c0-0.3,0-0.3,0-0.6c-1.6-0.3-2.2-0.3-3.8-0.6c0.3,0.6,0.3,1.3,0.6,1.9c-0.3,0-0.3,0-0.6,0
			c0,0.3,0,0.3,0,0.6c-0.6-0.3-0.6-0.6-1.3-1.3c1.9-4.8,3.5-4.4,9.8-4.4C216.4,116.2,219.6,116.5,220.9,116.8z"/>
		<path id="XMLID_28_" class="st2" d="M151.4,126c0,0.6,0,1.3,0,1.9c-0.6,0.3-1.3,0.3-1.9,0.6c0-0.3,0-0.3,0-0.6c-0.6,0-1.6,0-2.2,0
			c0,0.3,0,0.3,0,0.6c-0.3,0-0.3,0-0.6,0c0,0-0.3-1-1.3-0.6c-0.3,0.3-0.3,0.6-0.6,1.3c-0.6,0-1.3,0-1.9,0c0,0.3,0,0.3,0,0.6
			c-0.6,0.3-1.6,0.3-2.2,0.6c0-0.3,0-0.3,0-0.6c-0.3,0-0.3,0-0.6,0c0.3-0.6,0.3-1.3,0.6-1.9c1.3-0.6,1-0.6,2.2-1.3
			c0-0.3,0-0.6,0-1.3c0.3,0,0.6,0,1.3,0c0-0.3,0-0.3,0-0.6C146.7,125.1,149.2,125.4,151.4,126z"/>
		<path id="XMLID_27_" class="st2" d="M242.1,134.6c-0.6,0-1.3,0-1.9,0c-0.3,0.6-0.6,1.3-1.3,1.9c-0.3,0-0.3,0-0.6,0
			c0,0.3,0,0.6,0,1.3c-0.3,0-0.3,0-0.6,0c0,0.6,0,1.6,0,2.2c-0.3,0-0.3,0-0.6,0c0,0.6,0,1.3,0,1.9c-0.3,0-0.3,0-0.6,0
			c0,0.6,0,1.6,0,2.2c-0.3,0-0.3,0-0.6,0c-0.3,1.3-0.3,2.2-0.6,3.8c-1,1.6-1.9,3.5-3.2,5.1c-0.3,0-0.6,0-1.3,0c0-0.3,0-0.3,0-0.6
			c4.1-2.5,6-19,1.3-22.2c-1.9-1.9-8.9-2.9-12.4-3.2c-2.9-0.3-7.6,0.6-9.2-0.6c5.4,0,12.4-0.6,16.5,0.6c1.6,0,3.5,0,5.1,0
			c3.5,0,6,0.3,8.6,1.3C241.5,130.4,241.8,132.7,242.1,134.6z"/>
		<path id="XMLID_26_" class="st2" d="M206,127.3c1.3,0,2.9,0,4.4,0c0,0.3,0,0.3,0,0.6c-1.3,0-2.9,0-4.4,0
			C206,127.6,206,127.3,206,127.3z"/>
		<path id="XMLID_25_" class="st2" d="M202.5,127.9c1,0,1.9,0,3.2,0c0,0.3,0,0.3,0,0.6c-2.5,0.6-5.4,1.3-7.9,1.9c0-0.3,0-0.3,0-0.6
			c0.3,0,0.6,0,1.3,0c0-0.3,0-0.3,0-0.6c1.3-0.3,2.2-0.3,3.8-0.6C202.5,128.2,202.5,127.9,202.5,127.9z"/>
		<path id="XMLID_24_" class="st2" d="M195.8,130.1c0,0.3,0,0.6,0,1.3c-0.6,0.3-4.8,2.2-5.1,2.2c0,0.3,0,0.6,0,1.3
			c-0.6,0.6-1.9,3.5-1.3,5.4c0.3,0,0.3,0,0.6,0c0,1,0,1.9,0,3.2c0.3,0,0.3,0,0.6,0c0.3,1.3,0.3,2.2,0.6,3.8c0.3,0,0.3,0,0.6,0
			c0.3,1.3,0.6,2.2,1.3,3.8c1.3,1,2.2,1.9,3.8,3.2c0.3,0.3,0.3,0.6,0.6,1.3c2.2,0.6,5.1,1.6,7.3,2.2c-1.3,0-2.9,0-4.4,0
			c-1.3-1.9-3.5-1.3-5.4-2.2c-0.6-0.6-1.3-1.6-1.9-2.2c-0.3,0-0.3,0-0.6,0c0-0.3,0-0.6,0-1.3c-0.3-0.3-0.6-0.3-1.3-0.6
			c-1.9-2.9-4.1-8.2-5.1-12.4c-0.3,0-0.6,0-1.3,0c-0.3-0.3-0.3-0.6-0.6-1.3c-1.6,0-3.5,0-5.1,0c-0.6,0.6-1.3,1.6-1.9,2.2
			c-0.3,0-0.3,0-0.6,0c0,1.3,0,2.9,0,4.4c-0.3,0-0.3,0-0.6,0c-0.3,1.3-0.3,2.9-0.6,4.4c-0.3,0-0.3,0-0.6,0c0,0.3,0,0.6,0,1.3
			c-0.3,0-0.3,0-0.6,0c-0.3,1.3-0.3,2.2-0.6,3.8c-0.3,0.3-0.6,0.3-1.3,0.6c0,0.3,0,0.6,0,1.3c-1,1.3-2.9,1.9-3.8,3.2
			c-0.3,0-0.3,0-0.6,0c0-0.3,0-0.6,0-1.3c4.1-2.5,8.6-18.4,2.2-22.2c0-0.3,0-0.3,0-0.6c-1.3-0.3-2.9-0.3-4.4-0.6c0-0.3,0-0.3,0-0.6
			c-1,0-1.9,0-3.2,0c0-0.3,0-0.3,0-0.6c-1,0-1.9,0-3.2,0c0-0.3,0-0.3,0-0.6c-4.8,0-9.5,0-14.3,0c0,0.3,0,0.3,0,0.6
			c-0.6,0-1.6,0-2.2,0c0,0.3,0,0.3,0,0.6c-0.3,0-0.3,0-0.6,0c0-0.3,0-0.3,0-0.6c-0.3,0-0.3,0-0.6,0c0,0.3,0,0.3,0,0.6
			c-1.6,0.3-4.8,0.6-5.4,0c0.3,0,0.6,0,1.3,0c0-0.3,0-0.3,0-0.6c0.6,0,1.3,0,1.9,0c0-0.3,0-0.3,0-0.6c2.2-0.3,4.4-0.3,6.7-0.6
			c0-0.3,0-0.3,0-0.6c6.3,0.3,12.7,0.3,19,0.6c0,0.3,0,0.3,0,0.6c0.6,0,1.6,0,2.2,0c0,0.3,0,0.3,0,0.6c0.6,0,1.6,0,2.2,0
			c0,0.3,0,0.3,0,0.6c0.6,0,1.3,0,1.9,0c0,0.3,0,0.3,0,0.6c0.6,0,1.3,0,1.9,0c0,0.3,0,0.3,0,0.6c1.6,0,3.5,0,5.1,0
			c0,0.3,0,0.3,0,0.6c0.3,0,0.3,0,0.6,0c0-0.3,0-0.3,0-0.6c1,0,1.9,0,3.2,0c0-0.3,0-0.3,0-0.6c1.6,0,3.5,0,5.1,0
			c0.3-0.6,0.6-1.3,1.3-1.9c0.6,0,1.6,0,2.2,0c0.3-0.3,0.3-0.6,0.6-1.3C193.6,130.4,194.6,130.4,195.8,130.1z"/>
		<path id="XMLID_23_" class="st2" d="M227.6,135.8c0,0.6,0,1.3,0,1.9c-0.3,0-0.3,0-0.6,0c-1.3,1.3-7,0.6-9.8,0.6
			c-0.3-0.6-0.3-1.3-0.6-1.9c-0.3,0-0.3,0-0.6,0c0,0.3,0,0.6,0,1.3c-0.3,0-0.3,0-0.6,0c0,0.6,0,1.3,0,1.9c-2.2,0.3-5.4,0.6-8.6,0.6
			c-0.3-0.6-0.3-1.3-0.6-1.9c-0.3,0-0.3,0-0.6,0c0-0.6,0-1.6,0-2.2c1-0.3,1.3-0.6,3.2-0.6c0.6,0.3,3.2,0.6,5.1,0
			C218.4,133.6,223.1,135.2,227.6,135.8z"/>
		<path id="XMLID_22_" class="st2" d="M255.8,134.6c-0.6,1.9-1.9,2.9,0.6,4.4c0,0.3,0,0.3,0,0.6c0.3,0,0.3,0,0.6,0
			c0-0.3,0-0.3,0-0.6c0.3,0,0.3,0,0.6,0c0-1,0-1.9,0-3.2c0.3,0,0.3,0,0.6,0c0-0.3,0-0.3,0-0.6C256.7,135.2,256.7,134.9,255.8,134.6z
			"/>
		<path id="XMLID_21_" class="st2" d="M203.8,135.8c0.3,0,0.6,0,1.3,0c-0.3,2.5-0.6,1.6-1.3,4.4c-1.9,0.3-2.2,1-4.4,1.3
			c0-0.3,0-0.3,0-0.6c1-0.6,1.6-1.6,1.9-3.2c0.6-0.3,1.6-0.3,2.2-0.6C203.8,136.5,203.8,136.2,203.8,135.8z"/>
		<path id="XMLID_20_" class="st2" d="M163.2,143.8c-5.1,0-3.2-0.3-5.4-2.2c-0.3,2.2-0.6,2.9-3.2,3.2c0,0.3,0,0.6,0,1.3
			c-1.9,0.3-3.8,0.3-5.4,0.6c-0.3-0.6-0.3-1.3-0.6-1.9c-0.3,0-0.3,0-0.6,0c0-0.6,0-1.6,0-2.2c5.4-0.3,9.5-1.9,14.9,0
			C162.8,142.5,162.8,143.1,163.2,143.8z"/>
		<path id="XMLID_19_" class="st2" d="M144.8,142.5c0.6,0,1.6,0,2.2,0c0,0.3,0,0.6,0,1.3c-0.3,0-0.6,0-1.3,0c0,0.6,0,1.3,0,1.9
			c-1.6,0.6-1,1-3.8,1.3c-1,1-3.5,0.6-5.4,0.6c0-0.3,0-0.3,0-0.6c0.6-0.6,0.3,0,0.6-1.3c2.9-0.6,3.8-1.9,7.3-1.9
			C144.8,143.5,144.8,143.1,144.8,142.5z"/>
		<path id="XMLID_18_" class="st2" d="M228.8,154.2c0.3,0,0.6,0,1.3,0c0,0.3,0,0.3,0,0.6C228.8,154.6,229.5,154.9,228.8,154.2z"/>
		<path id="XMLID_17_" class="st2" d="M225.6,155.5c0.6,0,1.3,0,1.9,0c0,0.3,0,0.3,0,0.6c-0.6,0-1.3,0-1.9,0
			C225.6,155.8,225.6,155.5,225.6,155.5z"/>
		<path id="XMLID_16_" class="st2" d="M221.5,156.5c0.6,0,1.3,0,1.9,0c0,0.3,0,0.3,0,0.6c-0.6,0-1.3,0-1.9,0
			C221.5,157.1,221.5,156.8,221.5,156.5z"/>
		<path id="XMLID_15_" class="st2" d="M165.7,159c0.3,0,0.6,0,1.3,0c0,0.3,0,0.3,0,0.6C165.7,159.3,166.3,159.6,165.7,159z"/>
		<path id="XMLID_14_" class="st2" d="M163.8,159.6c0.6,0,1.3,0,1.9,0c0,0.3,0,0.3,0,0.6c-0.6,0-1.3,0-1.9,0
			C163.8,160.3,163.8,159.9,163.8,159.6z"/>
		<path id="XMLID_13_" class="st2" d="M134.9,160.3c0.3,0,0.6,0,1.3,0c0,0.3,0,0.3,0,0.6C134.9,160.6,135.9,160.9,134.9,160.3z"/>
		<path id="XMLID_12_" class="st2" d="M161.9,160.3c0.6,0,1.3,0,1.9,0c0,0.3,0,0.3,0,0.6c-0.6,0-1.3,0-1.9,0
			C161.9,160.6,161.9,160.6,161.9,160.3z"/>
		<path id="XMLID_11_" class="st2" d="M136.2,160.9c0.3,0,0.6,0,1.3,0c0,0.3,0,0.3,0,0.6C136.2,161.2,136.8,161.5,136.2,160.9z"/>
		<path id="XMLID_10_" class="st2" d="M137.5,161.5c1.9,0,6,0.3,6.7,1.3c-1.6,0-3.5,0-5.1,0c0-0.3,0-0.3,0-0.6c-0.6,0-1.3,0-1.9,0
			C137.5,161.9,137.5,161.9,137.5,161.5z"/>
		<path id="XMLID_9_" class="st2" d="M155.9,161.5c0.6,0,1.6,0,2.2,0c0,0.3,0,0.3,0,0.6c-0.6,0-1.6,0-2.2,0
			C155.9,161.9,155.9,161.9,155.9,161.5z"/>
		<path id="XMLID_8_" class="st2" d="M195.8,173.6c-1-0.3-1.9-0.3-3.2-0.6c0,0.3,0,0.3,0,0.6c-1.6,0.3-3.5,0.3-5.1,0.6
			c0.3-1.9,0.3-1.3,1.9-1.9c1-1,3.5-0.6,5.4-0.6C195.2,172.6,195.5,173.3,195.8,173.6z"/>
		<path id="XMLID_7_" class="st2" d="M172.4,177.4c0-0.6,0-1.3,0-1.9c0.3,0,0.3,0,0.6,0c1.3-1.9,3.5-1.9,6.7-1.9
			c0.3,0.6,0.6,1.3,1.3,1.9C178.1,176.1,175.2,176.8,172.4,177.4z"/>
		<path id="XMLID_6_" class="st2" d="M207.9,193.6c0,0.3,0,0.6,0,1.3c-0.6,0-1.3,0-1.9,0c0,0.3,0,0.3,0,0.6c-4.1,0-7.9,0-12.4,0
			c0,0.3,0,0.3,0,0.6c-1.6,0-3.5,0-5.1,0c0-0.3,0-0.3,0-0.6c0.3,0,0.6,0,1.3,0c1.3-1.3,3.8,0,6-0.6c0-0.3,0-0.3,0-0.6
			c3.2,0,6,0,9.2,0c0-0.3,0-0.3,0-0.6C206.3,193.6,207.2,193.6,207.9,193.6z"/>
		<path id="XMLID_5_" class="st2" d="M180.3,197.1c-1,0.3-1.9,0.3-3.2,0.6c0,0.3,0,0.3,0,0.6c-1.3,0.3-2.9,0.3-4.4,0.6
			c0,0.3,0,0.3,0,0.6c-2.2,0.3-4.4,0.3-6.7,0.6c0-0.3,0-0.6,0-1.3c1.3,0,2.9,0,4.4,0c0-0.3,0-0.3,0-0.6c0.3,0,0.6,0,1.3,0
			c0-0.3,0-0.3,0-0.6c1.9-0.3,4.1-0.6,6-1.3c0.6,0,2.2-0.6,2.2-0.6C180.3,196.1,180.3,196.7,180.3,197.1z"/>
		<path id="XMLID_4_" class="st2" d="M180.9,195.8c1.6,0,3.5,0,5.1,0c0,0.3,0,0.3,0,0.6c-1.6,0-3.5,0-5.1,0
			C180.9,196.1,180.9,196.1,180.9,195.8z"/>
		<path id="XMLID_3_" class="st2" d="M244,232c1.3,0.3,1.6,0.6,2.2,1.3c0,0.3,0,0.3,0,0.6c0.3,0,0.6,0,1.3,0
			c0.3,0.3,0.3,0.6,0.6,1.3c0.3,0,0.6,0,1.3,0c0,0.3,0,0.3,0,0.6c0.3,0.3,0.6,0.3,1.3,0.6c0,0.3,0,0.6,0,1.3
			c0.6,0.3,1.3,0.6,1.9,1.3c1.3,3.8,2.2,7.3,3.8,11.1c0,1.6,0,3.5,0,5.1c0.6,1.9,1.3,8.9,0.6,11.7c-0.3,0-0.3,0-0.6,0
			c0,1,0,1.9,0,3.2c-0.3,0-0.3,0-0.6,0c0,0.3,0,0.6,0,1.3c-0.3,0-0.3,0-0.6,0c0,0.6,0,1.6,0,2.2c-0.3,0-0.3,0-0.6,0
			c-0.3,0.6-0.3,1.6-0.6,2.2c-0.3,0-0.3,0-0.6,0c0,0.3,0,0.6,0,1.3c-0.3,0-0.3,0-0.6,0c-0.3,0.6-0.3,1.3-0.6,1.9
			c-0.3,0.3-0.6,0.3-1.3,0.6c0,0.3,0,0.6,0,1.3c-0.6,0.3-1.3,0.6-1.9,1.3c0,0.3,0,0.6,0,1.3c-0.3,0.3-0.6,0.3-1.3,0.6
			c0,0.3,0,0.6,0,1.3c-1.6,1.3-3.5,2.9-5.1,4.4c-1,1.3-1.9,2.2-3.2,3.8c-0.3,0-0.6,0-1.3,0c-0.3,0.3-0.3,0.6-0.6,1.3
			c-0.6,0.3-1.6,0.3-2.2,0.6c-0.3,0.3-0.3,0.6-0.6,1.3c-0.6,0.3-1.6,0.3-2.2,0.6c0,0.3,0,0.3,0,0.6c-0.3,0-0.6,0-1.3,0
			c0,0.3,0,0.3,0,0.6c-1.3,0.3-2.2,0.6-3.8,1.3c0,0.3,0,0.3,0,0.6c-0.6,0-1.3,0-1.9,0c0,0.3,0,0.3,0,0.6c-0.3,0-0.6,0-1.3,0
			c0,0.3,0,0.3,0,0.6c-0.6,0-1.3,0-1.9,0c0,0.3,0,0.3,0,0.6c-0.6,0-1.3,0-1.9,0c0,0.3,0,0.3,0,0.6c-0.6,0-1.6,0-2.2,0
			c0,0.3,0,0.3,0,0.6c-0.6,0-1.6,0-2.2,0c0,0.3,0,0.3,0,0.6c-0.6,0-1.6,0-2.2,0c0,0.3,0,0.3,0,0.6c-0.6,0-1.6,0-2.2,0
			c0,0.3,0,0.3,0,0.6c-3.2,0.3-6,0.3-9.2,0.6c0,0.3,0,0.3,0,0.6c-2.9,0.6-15.5,0-17.8-0.6c-1.6,0-3.5,0-5.1,0c0-0.3,0-0.3,0-0.6
			c-1.3,0-2.2,0-3.8,0c0-0.3,0-0.3,0-0.6c-0.6,0-1.6,0-2.2,0c0-0.3,0-0.3,0-0.6c-0.6,0-1.6,0-2.2,0c0-0.3,0-0.3,0-0.6
			c-1,0-1.9,0-3.2,0c0-0.3,0-0.3,0-0.6c-0.6,0-1.3,0-1.9,0c0-0.3,0-0.3,0-0.6c-0.6,0-1.3,0-1.9,0c0-0.3,0-0.3,0-0.6
			c-0.6,0-1.3,0-1.9,0c0-0.3,0-0.3,0-0.6c-0.6,0-1.3,0-1.9,0c0-0.3,0-0.3,0-0.6c-0.6-0.3-1.6-0.3-2.2-0.6c0-0.3,0-0.3,0-0.6
			c-1-0.3-1.9-0.3-3.2-0.6c-0.3-0.3-0.3-0.6-0.6-1.3c-1.3-0.3-2.2-0.6-3.8-1.3c0-0.3,0-0.3,0-0.6c-0.6-0.3-1.3-0.3-1.9-0.6
			c-0.3-0.3-0.3-0.6-0.6-1.3c-0.6-0.3-1.6-0.3-2.2-0.6c-0.3-0.6-0.6-1.3-1.3-1.9c-0.3,0-0.6,0-1.3,0c-4.1-3.8-7.9-7.6-12.4-11.7
			c0-0.3,0-0.6,0-1.3c-0.6-0.6-1.6-1.3-2.2-1.9c0-0.3,0-0.6,0-1.3c-0.6-0.3-1.3-0.6-1.9-1.3c0-0.3,0-0.6,0-1.3
			c-0.6-0.3-1.3-0.6-1.9-1.3c0-0.3,0-0.6,0-1.3c-0.3-0.3-0.6-0.3-1.3-0.6c0-0.3,0-0.6,0-1.3c-0.3,0-0.3,0-0.6,0
			c-0.6-1.3-0.3-1.6-1.3-2.2c0.3-0.3,0.3-0.6,0.6-1.3c0.3,0,0.3,0,0.6,0c0,0.3,0,0.3,0,0.6c0.6,0.6,0.3,0,0.6,1.3c0.3,0,0.6,0,1.3,0
			c-0.3-1.3-0.6-1.9-1.3-3.2c2.9-1.9,2.5-6.3,6-7.3c0,0.3,0,0.3,0,0.6c2.5,1.6,0.6,1,1.9,3.2c0.3,0.3,0.6,0.3,1.3,0.6
			c0,0.6,0,1.3,0,1.9c0.3,0,0.3,0,0.6,0c0.3,0.6,0.3,1.6,0.6,2.2c0.3,0,0.3,0,0.6,0c0.3,0.6,0.3,1.6,0.6,2.2
			c0.3,0.3,0.6,0.3,1.3,0.6c0.3,0.6,0.3,1.6,0.6,2.2c0.3,0.3,0.6,0.3,1.3,0.6c0,0.3,0,0.6,0,1.3c0.3,0,0.3,0,0.6,0
			c0.6,1,0.6,1.3,1.3,2.2c0.3,0,0.6,0,1.3,0c0,0.3,0,0.6,0,1.3c1.3,1.3,2.9,2.2,4.4,3.8c0.3,0.3,0.3,0.6,0.6,1.3
			c0.6,0.3,1.3,0.3,1.9,0.6c0.6,0.6,1.3,1.6,1.9,2.2c0.6,0.3,1.6,0.3,2.2,0.6c0.3,0.6,0.6,1.3,1.3,1.9c0.3,0,0.6,0,1.3,0
			c0,0.3,0,0.3,0,0.6c0.3,0,0.6,0,1.3,0c0,0.3,0,0.3,0,0.6c0.3,0,0.6,0,1.3,0c0,0.3,0,0.3,0,0.6c0.3,0,0.6,0,1.3,0
			c0,0.3,0,0.3,0,0.6c0.3,0,0.6,0,1.3,0c0,0.3,0,0.3,0,0.6c0.3,0,0.6,0,1.3,0c0,0.3,0,0.3,0,0.6c1.3,0.3,2.2,0.6,3.8,1.3
			c0,0.3,0,0.3,0,0.6c1.3,0.3,2.9,0.3,4.4,0.6c0.3,0.3,0.3,0.6,0.6,1.3c2.2,0.3,5.1,0.6,7.3,1.3c0,0.3,0,0.3,0,0.6
			c2.5,0.6,15.9,2.2,19.7,1.3c0-0.3,0-0.3,0-0.6c3.5-0.3,7-0.3,10.5-0.6c0-0.3,0-0.3,0-0.6c0.6,0,1.6,0,2.2,0c0-0.3,0-0.3,0-0.6
			c0.6,0,1.6,0,2.2,0c0-0.3,0-0.3,0-0.6c1,0,1.9,0,3.2,0c0-0.3,0-0.3,0-0.6c0.3,0,0.6,0,1.3,0c0-0.3,0-0.3,0-0.6c0.6,0,1.3,0,1.9,0
			c0-0.3,0-0.3,0-0.6c1.3-0.3,2.2-0.3,3.8-0.6c0-0.3,0-0.3,0-0.6c0.6-0.3,1.6-0.3,2.2-0.6c0.3-0.3,0.3-0.6,0.6-1.3
			c1.3-0.3,2.9-0.6,4.4-1.3c0-0.3,0-0.6,0-1.3c5.4-0.6,7-6,11.7-7.3c0-0.3,0-0.6,0-1.3c0.3,0,0.6,0,1.3,0c1.3-1.6,2.2-3.5,3.8-5.1
			c0.3-0.3,0.6-0.3,1.3-0.6c0-0.6,0-1.3,0-1.9c0.3-0.3,0.6-0.3,1.3-0.6c0-0.3,0-0.6,0-1.3c0.3-0.3,0.6-0.3,1.3-0.6
			c0.3-1.9,0.6-3.8,1.3-5.4c0.3,0,0.6,0,1.3,0c0.3-7,0-13-1.9-17.8c0-0.6,0-1.3,0-1.9c-0.3-0.3-0.6-0.3-1.3-0.6
			c-0.3-1-0.3-1.9-0.6-3.2c-0.6-0.3-1.3-0.6-1.9-1.3C245,235.4,244.4,234.2,244,232z"/>
		<path id="XMLID_2_" class="st2" d="M128.3,259.6c0.3,0.3,0.3,0.6,0.6,1.3c0.3,0,0.3,0,0.6,0c0-0.3,0-0.3,0-0.6c0.3,0,0.3,0,0.6,0
			c0-0.3,0-0.3,0-0.6C129.5,259.6,128.9,259.6,128.3,259.6z"/>
		<path id="XMLID_1_" class="st2" d="M132.7,278c1,1.3,1.3,1.3,1.3,1.3C134.3,278.6,132.7,278,132.7,278z"/>
	</g>
</g>
</svg>
