<?xml version="1.0" encoding="utf-8"?>
<!-- Generator: Adobe Illustrator 20.0.0, SVG Export Plug-In . SVG Version: 6.00 Build 0)  -->
<svg version="1.1" id="图层_1" xmlns="http://www.w3.org/2000/svg" xmlns:xlink="http://www.w3.org/1999/xlink" x="0px" y="0px"
	 viewBox="0 0 15.6 15.6" style="enable-background:new 0 0 15.6 15.6;" xml:space="preserve">
<style type="text/css">
	.st0{fill:#FF4A53;}
</style>
<g>
	<path class="st0" d="M11.4,4.5c0.1,0,0.1,0,0.2,0c0.1,0,0.2,0,0.2,0v0.5v4.5c-0.1,0-0.1,0-0.2,0s-0.2,0-0.2,0
		c-0.6,0.1-1,0.1-1.1,0.1c-0.6,0-1.2-0.1-2-0.3C7.2,9.1,6.6,8.9,6.4,8.9C5.8,8.9,5.3,9,4.9,9.1v4.1H4.5V9.2V4.5V4.5l0.1-0.1
		c0.4-0.2,1-0.3,1.9-0.3c0.5,0,1.2,0.1,1.9,0.3c1.1,0.2,1.7,0.3,1.9,0.3c0.2,0,0.4,0,0.7-0.1C11.2,4.5,11.3,4.5,11.4,4.5z"/>
</g>
</svg>
