<?xml version="1.0" encoding="utf-8"?>
<!-- Generator: Adobe Illustrator 19.0.0, SVG Export Plug-In . SVG Version: 6.00 Build 0)  -->
<svg version="1.1" id="Capa_1" xmlns="http://www.w3.org/2000/svg" xmlns:xlink="http://www.w3.org/1999/xlink" x="0px" y="0px"
	 viewBox="-206 359.5 15.7 15.7" style="enable-background:new -206 359.5 15.7 15.7;" xml:space="preserve">
<style type="text/css">
	.st0{opacity:0.4;fill:#80BF96;}
	.st1{fill:#F5F5F5;}
	.st2{fill:#FFFFFF;}
</style>
<path id="XMLID_2_" class="st0" d="M-198.2,375.2L-198.2,375.2c-4.3,0-7.8-3.5-7.8-7.8l0,0c0-4.3,3.5-7.8,7.8-7.8h0
	c4.3,0,7.8,3.5,7.8,7.8l0,0C-190.3,371.6-193.9,375.2-198.2,375.2z"/>
<g>
	<g>
		<polygon class="st1" points="-203.3,364 -203.3,371.1 -198.2,371.1 -193,371.1 -193,364 		"/>
		<path class="st1" d="M-197.6,368c-0.3,0.3-0.8,0.3-1.1,0l-0.4-0.3c-1.2,1.1-4.2,3.5-4.2,3.5h4h2.4h4c0,0-3-2.4-4.2-3.5L-197.6,368
			z"/>
		<path class="st2" d="M-203.3,364l4.6,4.1c0.3,0.3,0.8,0.3,1.1,0l4.6-4.1H-203.3z"/>
	</g>
</g>
</svg>
