<?xml version="1.0" encoding="utf-8"?>
<!-- Generator: Adobe Illustrator 19.0.0, SVG Export Plug-In . SVG Version: 6.00 Build 0)  -->
<svg version="1.1" id="Capa_1" xmlns="http://www.w3.org/2000/svg" xmlns:xlink="http://www.w3.org/1999/xlink" x="0px" y="0px"
	 viewBox="-211 356.5 15.7 15.7" style="enable-background:new -211 356.5 15.7 15.7;" xml:space="preserve">
<style type="text/css">
	.st0{opacity:0.4;fill:#80BF96;}
	.st1{fill:#FFFFFF;}
	.st2{fill:#F5F5F5;}
</style>
<path id="XMLID_2_" class="st0" d="M-203.2,372.2L-203.2,372.2c-4.3,0-7.8-3.5-7.8-7.8v0c0-4.3,3.5-7.8,7.8-7.8h0
	c4.3,0,7.8,3.5,7.8,7.8v0C-195.3,368.6-198.9,372.2-203.2,372.2z"/>
<g>
	<g>
		<path class="st1" d="M-198.3,367c-0.3-0.7-1.6-1.4-1.6-1.4c-0.3-0.2-0.6-0.2-0.8,0.1c0,0-0.4,0.5-0.5,0.6
			c-0.5,0.3-0.9,0.3-1.4-0.1l-1.1-1.1l-1.1-1.1c-0.5-0.5-0.5-0.9-0.1-1.4c0.1-0.1,0.6-0.5,0.6-0.5c0.3-0.2,0.3-0.5,0.1-0.8
			c0,0-0.8-1.3-1.4-1.6c-0.3-0.1-0.6-0.1-0.9,0.1l-0.5,0.5c-1.5,1.5-0.8,3.2,0.7,4.6l1.4,1.4l1.4,1.4c1.5,1.5,3.2,2.2,4.6,0.7
			l0.5-0.5C-198.2,367.6-198.1,367.3-198.3,367z"/>
		<path class="st2" d="M-198.1,366.9c-0.4-0.7-1.7-1.5-1.7-1.5c-0.2-0.1-0.3-0.1-0.5-0.1c-0.2,0-0.4,0.1-0.6,0.3
			c-0.2,0.2-0.4,0.5-0.5,0.5c-0.4,0.3-0.8,0.3-1.2-0.1l-2.1-2.1c-0.4-0.4-0.4-0.7-0.1-1.2c0-0.1,0.3-0.3,0.5-0.5
			c0.1-0.1,0.2-0.2,0.3-0.4c0.1-0.2,0-0.5-0.1-0.7c0-0.1-0.8-1.3-1.5-1.7c-0.1-0.1-0.3-0.1-0.4-0.1c-0.2,0-0.5,0.1-0.6,0.3l-0.5,0.5
			c-0.7,0.7-1,1.6-0.8,2.5c0.2,0.8,0.7,1.6,1.5,2.4l2.7,2.7c1.1,1.1,2.1,1.6,3,1.6c0,0,0,0,0,0c0.7,0,1.3-0.3,1.9-0.9l0.5-0.5
			C-198,367.7-197.9,367.3-198.1,366.9z M-198.6,367.7l-0.5,0.5c-0.5,0.5-1.1,0.8-1.6,0.8l0,0c-0.8,0-1.8-0.5-2.7-1.5l-2.7-2.7
			c-0.8-0.8-1.3-1.5-1.4-2.2c-0.2-0.8,0-1.5,0.7-2.1l0.5-0.5c0.1-0.1,0.2-0.2,0.4-0.2c0.1,0,0.2,0,0.3,0.1c0.6,0.3,1.3,1.6,1.3,1.6
			c0.1,0.1,0.1,0.3,0.1,0.4c0,0.1-0.1,0.1-0.1,0.2l0,0c-0.2,0.1-0.5,0.4-0.6,0.6c-0.1,0.2-0.2,0.3-0.2,0.5c-0.1-0.3-0.2-0.6-0.3-0.9
			c0-0.1-0.1-0.2-0.2-0.2c-0.1,0-0.2,0.1-0.2,0.2c0.1,1.3,1.1,2.1,1.2,2.2c0,0,0,0,0,0l2,2c0,0,0,0,0,0c0,0,0,0,0,0
			c0,0,0.9,0.8,2.1,1c0,0,0,0,0,0c0.1,0,0.2-0.1,0.2-0.2c0-0.1-0.1-0.2-0.2-0.2c-0.4,0-0.7-0.2-1-0.3c0.1,0,0.3-0.1,0.4-0.2
			c0.1-0.1,0.4-0.5,0.6-0.6l0,0c0.1-0.1,0.1-0.1,0.2-0.1c0.1,0,0.2,0,0.3,0.1c0.3,0.2,1.3,0.8,1.6,1.3
			C-198.3,367.3-198.4,367.5-198.6,367.7z"/>
	</g>
</g>
</svg>
