<?xml version="1.0" encoding="utf-8"?>
<!-- Generator: Adobe Illustrator 20.0.0, SVG Export Plug-In . SVG Version: 6.00 Build 0)  -->
<svg version="1.1" id="图层_1" xmlns="http://www.w3.org/2000/svg" xmlns:xlink="http://www.w3.org/1999/xlink" x="0px" y="0px"
	 viewBox="0 0 15.6 15.6" style="enable-background:new 0 0 15.6 15.6;" xml:space="preserve">
<style type="text/css">
	.st0{fill:#FFA861;}
</style>
<g>
	<path class="st0" d="M11.9,4l-0.4,3L5.1,8.1l0.1,0.7c0.1,0.5,0.3,0.8,0.6,0.8h5.6V10H5.9c-0.3,0-0.5-0.1-0.7-0.3
		C5.1,9.5,5,9.2,4.9,8.9l-1-5.5c0-0.2-0.1-0.3-0.2-0.4C3.6,2.9,3.3,2.9,2.9,2.9V2.5c0.5,0,0.9,0.1,1.1,0.3C4.1,2.9,4.2,3,4.3,3.3
		L11.9,4z M4.7,10.6c0.1-0.1,0.2-0.2,0.4-0.2s0.3,0.1,0.4,0.2s0.2,0.2,0.2,0.4s-0.1,0.3-0.2,0.4s-0.2,0.2-0.4,0.2s-0.3-0.1-0.4-0.2
		S4.6,11.1,4.6,11S4.6,10.7,4.7,10.6z M10,10.6c0.1-0.1,0.2-0.2,0.4-0.2s0.3,0.1,0.4,0.2s0.2,0.2,0.2,0.4s-0.1,0.3-0.2,0.4
		s-0.2,0.2-0.4,0.2s-0.3-0.1-0.4-0.2S9.8,11.1,9.8,11S9.9,10.7,10,10.6z"/>
</g>
</svg>
